<svg width="345" height="137" viewBox="0 0 345 137" fill="none" xmlns="http://www.w3.org/2000/svg">
<g clip-path="url(#clip0_2005_305)">
<path d="M14.0275 5.51808C16.1467 5.18187 15.6678 2.13559 13.5487 2.48199C11.4295 2.82839 11.9084 5.86448 14.0275 5.51808Z" fill="#FFB103"/>
<path d="M339.297 17.856C327.967 13.6686 314.875 26.8318 307.122 32.5678C294.754 41.7168 281.346 49.6738 266.919 55.6339C237.078 67.9616 205.148 67.9718 173.463 66.0768C140.27 64.0901 107.158 58.6598 76.3692 47.2897C68.8095 44.4982 61.3925 41.3602 54.1996 37.8555C46.6807 34.1775 38.4079 30.0513 34.0881 22.9603C33.6194 22.1962 33.2119 21.4117 32.8248 20.617C32.7636 20.291 32.621 19.9751 32.407 19.7102C30.1147 14.555 28.9227 8.9311 24.45 4.90676C20.5174 1.35107 15.6372 0.0469766 10.2986 1.62615C9.73826 1.78916 9.35111 2.06424 9.07603 2.38008C6.51878 3.41928 4.5117 5.48749 3.64571 8.22812C1.88314 13.8316 5.78523 18.8544 9.85033 22.4509C11.1239 23.5818 12.2853 24.6515 13.3449 25.7213C13.3449 26.9948 14.3535 28.0646 15.6474 28.2378C17.8379 30.8867 19.3967 33.7292 20.3951 37.4174C20.3034 37.9268 20.2219 38.4464 20.1404 38.966C19.9774 39.9848 20.4665 40.7897 21.2204 41.2685C22.3003 47.1879 23.1256 53.0461 25.4485 58.7005C26.07 60.2186 26.7526 61.6857 27.4861 63.1222C27.3027 64.2022 27.965 65.1904 28.8921 65.71C37.2464 80.2588 51.3062 90.8342 66.5681 99.433C66.507 99.5859 66.4357 99.7489 66.3746 99.9017C65.1622 102.968 69.5125 104.486 71.3057 102.021C75.493 104.242 79.7313 106.341 83.9289 108.348C83.8474 108.592 83.7659 108.837 83.6945 109.091C82.6961 112.311 87.1585 113.87 88.8396 110.895C88.8803 110.823 88.9211 110.752 88.9517 110.691C99.4863 115.52 110.204 119.626 121.177 122.866C121.951 124.18 123.867 124.792 125.12 123.987C140.351 128.164 156.092 130.66 172.577 131.047C179.464 131.21 186.453 131.149 193.483 130.864C194.726 132.137 197.191 132.188 197.986 130.65C219.993 129.468 242.264 126.034 262.977 119.871C272.34 117.089 281.285 113.442 289.609 108.928C291.361 110.243 294.856 108.99 294.183 106.534C294.163 106.473 294.153 106.412 294.132 106.351C296.048 105.2 297.932 103.997 299.776 102.744C301.274 102.907 302.996 101.96 303.098 100.411C304.178 99.6164 305.237 98.8014 306.287 97.9761C307.947 99.7081 312.002 98.6282 311.187 95.9487C311.116 95.7245 311.045 95.5106 310.984 95.2864C310.882 94.9604 310.78 94.6446 310.678 94.3186C316.638 89.0614 321.987 83.1523 326.592 76.5299C329.709 72.0471 332.44 67.3504 334.783 62.5008C335.904 62.1136 336.811 61.105 336.668 59.7194C336.627 59.3628 336.576 59.0062 336.536 58.6496C338.247 54.6762 339.684 50.6111 340.835 46.4747C342.404 46.3524 343.902 45.2419 343.402 43.571C343.036 42.3383 342.71 41.0953 342.414 39.8523C343.117 36.3985 343.637 32.9142 343.902 29.4094C344.248 24.9062 344.533 19.7917 339.317 17.856H339.297ZM330.932 36.4189C330.932 36.4189 330.881 36.3374 330.861 36.2967C330.963 35.4816 331.064 34.6767 331.187 33.8617C331.625 34.4118 332.053 34.962 332.46 35.5224C332.532 36.9691 332.552 38.426 332.511 39.8727C331.941 38.752 331.411 37.6109 330.932 36.4189ZM309.812 37.071C315.283 33.067 320.418 28.2276 326.531 25.0794C328.884 23.867 334.528 21.0958 337.228 22.675C337.524 22.8482 337.768 23.0927 337.962 23.378C336.607 23.5716 335.211 24.7534 335.099 26.1798C334.101 25.9658 333.01 26.2205 332.348 26.8929C332.114 26.6382 331.88 26.3835 331.635 26.1288C330.005 24.4579 327.173 25.3239 326.724 27.5348C326.276 29.7049 325.909 31.875 325.604 34.0451C325.542 33.9024 325.492 33.7496 325.43 33.5968C324.157 30.4996 319.267 32.7104 320.357 35.7872C320.499 36.1948 320.662 36.5819 320.805 36.9895C319.786 37.3155 318.941 38.0796 318.92 39.1188C318.859 42.6439 318.808 46.169 318.747 49.6942C316.475 46.4034 314.254 43.082 312.114 39.7199C310.352 36.9487 305.777 38.7724 307.041 41.9104C307.54 43.1431 308.009 44.3759 308.467 45.6189C307.754 45.9958 307.193 46.6377 307.071 47.5241C306.827 49.2561 306.654 50.9881 306.521 52.7099C306.154 53.3212 306.001 54.0751 306.266 54.9003C306.297 55.0022 306.338 55.1041 306.368 55.206C306.348 55.6033 306.338 55.9905 306.317 56.3878C305.298 54.3909 304.249 52.4042 303.098 50.4583C301.427 47.626 296.537 49.6127 298.024 52.6487C298.768 54.1566 299.532 55.6543 300.296 57.1519C300.215 57.3455 300.153 57.5493 300.123 57.7632C299.878 59.7805 299.634 61.808 299.389 63.8252C297.494 59.4545 295.508 55.1143 293.399 50.8251C292.879 49.7757 291.972 49.358 291.055 49.3783C292.258 48.6855 293.46 47.9825 294.642 47.2592C299.858 44.0906 304.901 40.6878 309.802 37.1015L309.812 37.071ZM242.926 118.791C242.885 117.222 242.835 115.653 242.773 114.094C242.967 115.367 243.15 116.641 243.354 117.914C243.456 118.536 243.721 119.005 244.067 119.341C243.65 119.422 243.222 119.504 242.794 119.596C242.875 119.341 242.926 119.076 242.926 118.801V118.791ZM257.088 88.8882C257.037 88.7354 256.976 88.5826 256.915 88.44C256.935 88.3788 256.945 88.3177 256.966 88.2464C257.006 88.4603 257.047 88.6743 257.088 88.8882ZM271.616 110.324C271.433 106.87 271.117 103.447 270.689 100.034C270.75 100.156 270.801 100.279 270.862 100.401C271.392 101.481 272.492 101.888 273.552 101.797C274.459 103.671 275.376 105.536 276.333 107.39C276.395 107.502 276.466 107.604 276.527 107.706C276.598 108.042 276.67 108.378 276.751 108.715C276.812 108.99 276.924 109.224 277.057 109.448C275.131 110.273 273.185 111.037 271.209 111.771C271.474 111.343 271.637 110.854 271.606 110.324H271.616ZM282.976 99.7285C283.679 99.8202 284.402 99.6572 284.993 99.2904C285.747 101.043 286.522 102.795 287.296 104.537C285.676 105.414 284.025 106.259 282.365 107.054C282.528 104.609 282.742 102.163 282.976 99.7285ZM288.335 52.985C290.026 57.4983 291.982 61.8793 294.153 66.1685C293.623 66.8307 293.368 67.6967 293.664 68.6442C293.979 69.6427 294.305 70.6309 294.642 71.6192C294.896 72.475 295.12 73.341 295.324 74.207C294.642 73.0557 293.949 71.9147 293.266 70.7634C292.675 69.5612 292.074 68.3692 291.443 67.1873C290.638 65.547 289.802 63.9067 288.936 62.2868C288.712 61.8691 288.427 61.5634 288.101 61.3291C286.532 58.7515 284.851 56.2146 283.068 53.7287C284.902 52.7812 286.725 51.8031 288.539 50.7945C288.172 51.4058 288.04 52.1597 288.355 52.985H288.335ZM286.603 75.0934C287 76.0205 287.398 76.9476 287.785 77.8748C287.337 77.182 286.909 76.479 286.471 75.776C286.511 75.5519 286.552 75.3175 286.603 75.0934ZM301.437 92.7394L301.834 89.4384C302.466 90.7832 303.118 92.1179 303.791 93.4424C303.19 93.9416 302.578 94.4204 301.967 94.8993C301.794 94.1759 301.621 93.4526 301.427 92.7292L301.437 92.7394ZM318.462 60.4631C318.278 59.6073 318.085 58.7515 317.881 57.8957C318.125 58.2319 318.36 58.5681 318.604 58.9043C318.594 59.5258 318.584 60.1473 318.574 60.7688C318.533 60.6669 318.492 60.565 318.451 60.4631H318.462ZM278.137 56.1637C279.848 59.0164 281.56 61.8691 283.272 64.7218C283.241 64.844 283.221 64.9561 283.19 65.0784C283.058 65.3636 282.976 65.6693 282.976 66.0055C282.742 66.9938 282.507 67.982 282.283 68.9805C281.04 66.9021 279.787 64.8237 278.585 62.7249C276.945 59.8518 272.156 61.8385 273.511 64.9154C274.082 66.2195 274.642 67.5337 275.202 68.848C274.449 69.5306 274.031 70.5494 274.408 71.6905C274.978 73.3614 275.559 75.0323 276.15 76.6929C275.661 75.613 275.172 74.5228 274.693 73.4327C274.459 72.3528 274.214 71.2728 273.98 70.1929C273.807 69.4185 273.257 68.8276 272.574 68.4711C271.789 66.576 271.015 64.6708 270.271 62.7453C269.069 59.6582 264.006 61.8487 265.198 64.9357C266.125 67.2994 267.032 69.6733 267.918 72.0471C267.918 72.0777 267.898 72.1082 267.887 72.1388C267.439 71.1607 266.991 70.1827 266.522 69.2148C265.778 67.7069 264.311 67.4726 263.119 67.982C261.948 64.9663 256.996 67.1568 258.076 70.2336C258.096 70.2947 258.117 70.3559 258.137 70.417C257.037 70.58 255.988 71.3339 255.631 72.6278C255.631 72.6482 255.621 72.6686 255.611 72.689C254.561 73.1678 253.787 74.1255 254.103 75.3277C254.235 75.8269 254.347 76.3364 254.469 76.8356C254.327 77.3552 254.184 77.8748 254.042 78.3944C252.778 74.4413 251.311 70.5393 249.61 66.7085C259.431 64.0901 268.947 60.5344 278.137 56.1637ZM244.24 68.0431C244.302 68.2571 244.373 68.471 244.444 68.685C244.444 68.685 244.444 68.685 244.444 68.6952C245.534 72.2305 246.665 75.7556 247.837 79.2604C247.694 78.9343 247.541 78.6083 247.399 78.2721C246.798 76.9375 245.28 76.6216 244.016 77.0088C243.996 76.7541 243.965 76.4892 243.945 76.2345C243.751 73.7587 239.493 73.3512 238.657 75.7251C238.525 75.2055 238.382 74.6859 238.26 74.1663C237.496 70.9977 232.157 71.7517 232.779 75.0323C233.553 79.1483 234.215 83.2643 234.796 87.4008C234.704 87.6758 234.613 87.9407 234.531 88.2158C233.329 82.9791 232.229 77.722 231.251 72.4445C231.087 71.5683 230.456 70.9672 229.671 70.6513C234.592 70.0095 239.442 69.1435 244.23 68.0533L244.24 68.0431ZM114.636 114.736C115.889 112.128 117.092 109.509 118.284 106.881C118.314 106.911 118.345 106.952 118.385 106.993C117.774 109.56 117.163 112.117 116.592 114.695C116.439 115.357 116.602 115.918 116.939 116.366C116.022 116.05 115.105 115.734 114.188 115.408C114.351 115.215 114.514 115.001 114.636 114.736ZM76.3488 98.7708C75.5338 98.3531 74.7289 97.9354 73.924 97.5075C75.3504 95.0317 76.7971 92.5662 78.2744 90.121C77.928 91.3232 77.5918 92.5254 77.2963 93.748C77.1333 94.4204 77.3371 95.0114 77.7344 95.4902C77.3371 96.3766 76.9397 97.263 76.5424 98.1493C76.4507 98.3633 76.3896 98.567 76.3488 98.7708ZM40.6086 72.638C41.6172 72.9437 42.7888 72.7297 43.5631 71.6702C44.7042 70.1114 45.8657 68.5933 47.0781 67.0855C45.7536 69.8668 44.419 72.6482 43.0945 75.4194C42.2387 74.5025 41.4134 73.5753 40.6187 72.6278L40.6086 72.638ZM26.182 18.8442C26.396 19.3842 26.6099 19.914 26.8341 20.4336C26.2941 20.8513 25.7134 21.1672 25.1123 21.4219C25.204 20.4234 24.5214 19.6084 23.5942 19.2008C24.1648 18.345 24.7353 17.4892 25.3059 16.6334C25.6217 17.4281 25.9172 18.1718 26.1719 18.8341L26.182 18.8442ZM22.9626 11.7227C22.8199 11.7634 22.6671 11.8246 22.5245 11.8959C22.6162 11.7532 22.7079 11.6106 22.8097 11.4578C22.8607 11.5495 22.9116 11.631 22.9626 11.7227ZM13.1207 6.76101C13.2226 6.76101 13.3143 6.76101 13.4162 6.76101C11.9797 7.42325 10.5431 8.09567 9.10659 8.7579C9.51412 7.45381 10.6858 6.58781 13.1309 6.76101H13.1207ZM101.402 60.5039C100.78 60.6873 100.21 61.0337 99.8021 61.5736C98.8648 61.4412 97.8867 61.7163 97.2754 62.623C97.0819 62.9083 96.8985 63.2037 96.7049 63.489C96.1751 62.8064 95.2683 62.3785 94.3412 62.3785C93.2409 61.2884 90.9791 61.105 89.9399 62.5619C88.4728 64.6199 87.0668 66.7085 85.6405 68.7971C87.3725 65.058 89.1452 61.3291 90.9486 57.6206C94.4024 58.6496 97.8867 59.6073 101.391 60.5039H101.402ZM149.154 98.4244C148.869 99.2497 148.593 100.065 148.318 100.89C148.543 99.6674 148.757 98.455 148.981 97.2324C149.042 97.6297 149.093 98.0271 149.154 98.4244ZM145.119 108.46C145.048 107.92 144.977 107.4 144.905 106.891C145.506 106.83 146.108 106.626 146.597 106.269C146.454 106.718 146.311 107.176 146.179 107.624C145.832 108.032 145.496 108.439 145.15 108.837C145.14 108.715 145.14 108.592 145.119 108.46ZM114.483 86.2699C114.178 86.6061 113.862 86.9423 113.556 87.2887C114.167 86.0865 114.769 84.8945 115.38 83.6922C115.237 84.2526 115.095 84.8129 114.942 85.3733C114.789 85.6688 114.646 85.9744 114.494 86.2801L114.483 86.2699ZM113.597 67.9107C113.577 67.3096 113.546 66.7085 113.505 66.1074C113.312 63.2954 109.338 63.6113 108.197 65.6387C106.669 68.3386 105.151 71.0385 103.623 73.7384C103.521 73.1576 103.185 72.689 102.716 72.3426C103.47 70.1827 104.224 68.0228 104.957 65.8629C105.253 64.9867 105.1 64.192 104.672 63.5909C104.723 63.3973 104.784 63.2037 104.835 63.0204C105.029 62.3072 104.896 61.7366 104.58 61.3087C108.34 62.2359 112.12 63.0815 115.92 63.8762C115.879 63.9373 115.828 63.9882 115.787 64.0596C115.044 65.3433 114.31 66.627 113.587 67.9209L113.597 67.9107ZM83.5417 59.2915C82.7674 59.3118 81.9931 59.6175 81.4429 60.3307C80.7705 61.2069 80.0879 62.083 79.4155 62.9694C79.4766 62.2155 79.1404 61.5227 78.6004 61.0235C79.283 59.5666 79.9555 58.1198 80.6381 56.6629C81.0762 55.7256 80.8215 54.8494 80.2509 54.2075C82.044 54.8188 83.8474 55.4098 85.6609 55.9905C84.9477 57.0806 84.2549 58.1911 83.5519 59.2915H83.5417ZM62.2178 47.9724C62.3095 47.7788 62.3604 47.5954 62.4012 47.4222C62.6457 47.5241 62.9004 47.626 63.1449 47.7278C62.8291 47.7584 62.5234 47.8399 62.2178 47.9724ZM57.1237 45.68C57.195 45.5476 57.2663 45.4151 57.307 45.2827C57.3886 45.3132 57.4599 45.354 57.5414 45.3845C57.3987 45.4762 57.2561 45.5781 57.1135 45.68H57.1237ZM26.5794 39.9848C26.5794 39.9339 26.559 39.8727 26.5488 39.8218C26.5896 39.7912 26.6303 39.7607 26.6813 39.7301C26.6507 39.8116 26.6099 39.9033 26.5794 39.9848ZM32.0606 47.8399C31.9588 48.655 32.3052 49.3885 32.8655 49.9081C31.9486 51.5994 31.052 53.3008 30.186 55.0226C29.2181 52.4348 28.4133 49.7655 27.8122 47.0045C28.617 47.0656 29.483 46.7701 30.1962 45.9347C31.0113 44.977 31.8365 44.0295 32.6516 43.0718C32.4478 44.6612 32.2542 46.2505 32.0505 47.8399H32.0606ZM32.2746 29.4909C32.0708 29.5724 31.8773 29.6641 31.6939 29.7864C30.0739 30.9377 28.454 32.0787 26.8341 33.23C27.4658 30.7237 28.3318 28.3804 29.7275 26.0473C30.4815 27.2495 31.3271 28.3906 32.2746 29.4909ZM35.8099 60.5752C37.4095 59.1081 38.8969 57.5595 40.5271 56.1841C40.0686 57.7429 39.6101 59.3118 39.1415 60.8706C38.9988 61.3495 39.009 61.8283 39.1211 62.2664C38.7034 63.1936 38.2755 64.1105 37.8577 65.0376C37.2363 66.3927 38.0513 67.6458 39.223 68.2062C39.0701 68.5627 38.9173 68.9193 38.7645 69.2861C38.6422 69.5816 38.6015 69.8566 38.5913 70.1317C36.8491 67.8394 35.2801 65.4553 33.8945 62.9796C34.516 62.1645 35.1579 61.3597 35.8099 60.565V60.5752ZM121.921 115.846C122.552 114.145 123.164 112.433 123.775 110.722C123.123 113.136 122.451 115.53 121.768 117.914C121.197 117.741 120.637 117.558 120.077 117.374C120.882 117.201 121.595 116.712 121.921 115.836V115.846ZM134.371 119.718C135.817 114.563 137.305 109.428 138.792 104.283C138.803 104.405 138.813 104.537 138.833 104.66C137.285 110.212 135.736 115.755 134.187 121.307C133.882 121.236 133.586 121.165 133.291 121.093C133.79 120.838 134.187 120.39 134.381 119.718H134.371ZM225.769 72.6177C225.749 73.881 225.739 75.1443 225.718 76.4077C225.239 76.1428 224.659 76.0613 224.058 76.1428C223.569 74.5942 223.069 73.0557 222.54 71.5173C222.519 71.4664 222.499 71.4358 222.478 71.3849C223.823 71.2728 225.168 71.1505 226.503 70.9977C226.065 71.3645 225.769 71.9045 225.769 72.6177ZM217.272 73.0456C217.598 77.3959 218.291 81.6546 219.3 85.842C218.627 88.3992 217.955 90.9564 217.282 93.5137C217.496 89.2041 217.395 84.8945 216.956 80.5645C216.814 79.1789 215.54 78.4963 214.257 78.4963C213.931 77.1514 213.594 75.8066 213.217 74.4719C212.749 72.8316 211.231 72.2407 209.906 72.5056C209.845 72.3426 209.774 72.1999 209.692 72.0573C212.321 71.9758 214.949 71.8535 217.568 71.7109C217.354 72.1082 217.242 72.5565 217.272 73.0354V73.0456ZM204.496 72.9437C204.425 73.6161 204.354 74.2783 204.292 74.9508C202.948 75.124 201.674 76.1632 201.745 77.8544C201.745 77.8952 201.745 77.9359 201.745 77.9868C200.564 78.1193 199.514 78.8427 199.524 80.1977C199.535 81.2267 199.524 82.2557 199.524 83.2847C199.035 84.2322 198.546 85.1899 198.057 86.1374C197.466 84.2628 196.855 82.3882 196.223 80.5237C195.796 77.8442 195.296 75.1647 194.705 72.4954C194.685 72.3935 194.644 72.312 194.614 72.2203C197.976 72.2611 201.338 72.2509 204.69 72.1898C204.598 72.4139 204.527 72.6584 204.496 72.9437ZM191.466 98.9033C190.864 100.075 190.253 101.247 189.652 102.418C190.1 99.4942 190.559 96.5803 191.048 93.6665C191.201 95.4087 191.333 97.1611 191.466 98.9033ZM230.955 96.9267C231.057 97.3241 231.169 97.7316 231.271 98.129C231.159 98.4754 231.047 98.8218 230.924 99.1681C230.924 98.4244 230.945 97.6705 230.955 96.9267ZM189.377 72.1184C189.306 72.2916 189.244 72.475 189.214 72.6686C186.84 84.925 184.782 97.212 183.019 109.54C183.244 105.383 183.692 101.185 183.753 100.126C184.11 93.6461 184.68 87.1766 185.383 80.7071C185.648 78.3129 183.06 77.3959 181.267 78.3638C181.267 77.8442 181.267 77.3348 181.277 76.8152C181.359 74.0032 177.334 73.2086 176.122 75.1341C174.808 73.8301 171.69 74.207 171.16 76.5911L170.243 80.7173C169.204 80.5237 168.053 80.7886 167.401 81.6852C167.279 81.8482 167.156 82.001 167.034 82.164C165.903 82.0825 164.752 82.5512 164.355 83.7534C164.538 80.4626 164.681 77.1718 164.793 73.881C164.884 71.0487 160.789 69.8974 159.475 72.7195C159.383 72.9233 159.291 73.1373 159.189 73.341C158.221 73.5957 157.345 74.2681 157.05 75.3889C156.387 77.9155 155.695 80.4422 154.982 82.9587C154.319 84.5481 153.677 86.1578 153.056 87.7573C152.679 85.6178 152.261 83.4783 151.854 81.3388C152.149 79.6985 152.445 78.0582 152.74 76.4179C153.25 73.5855 148.237 72.4037 147.422 75.2564C147.361 75.4704 147.3 75.6843 147.238 75.8983C147.249 75.5417 147.249 75.1851 147.269 74.8183C147.371 72.149 142.807 70.6208 141.951 73.6569C141.859 74.0032 141.757 74.3395 141.655 74.6859C141.502 74.4108 141.309 74.1561 141.085 73.9421C141.197 72.9437 141.329 71.9452 141.421 70.9366C141.747 67.5541 136.745 67.2688 135.919 70.4272C135.705 71.2524 135.481 72.0879 135.257 72.9131C134.462 72.363 133.403 72.1897 132.506 72.5056C132.72 71.5683 132.944 70.6309 133.158 69.6834C133.658 67.4522 130.734 66.3213 128.961 67.2485C127.922 66.8409 126.658 67.0039 125.772 68.1348C124.58 69.6427 123.459 71.1811 122.379 72.7399C122.41 71.4664 122.41 70.1929 122.328 68.9091C122.257 67.7171 121.442 67.0753 120.454 66.9021C120.617 66.5353 120.769 66.1685 120.943 65.8119C121.095 65.4757 121.167 65.1701 121.187 64.8746C127.626 66.1074 134.106 67.1568 140.616 68.0431C156.622 70.2234 173.004 71.6702 189.387 72.0777L189.377 72.1184ZM74.678 52.231C74.3825 52.3839 74.1074 52.5774 73.8425 52.8321C71.7539 54.9309 69.7367 57.0704 67.75 59.2303C68.0556 58.1096 68.3715 56.9889 68.6771 55.8784C69.1661 54.0955 66.9553 52.7404 65.2335 53.1378C65.4882 52.4755 65.7327 51.8133 65.9568 51.1409C66.2829 50.173 66.0384 49.307 65.5188 48.6855C66.1402 48.9402 66.7617 49.1848 67.3832 49.4395C69.7978 50.4073 72.2328 51.3345 74.678 52.2412V52.231ZM48.5248 41.1666C45.4785 43.459 42.5953 45.8838 39.875 48.4614C41.1791 46.2607 42.5545 44.0805 44.0827 41.9409C46.0083 39.1392 41.6376 36.1642 39.6407 38.9762C39.2943 39.4856 38.9275 39.9644 38.5607 40.4433C38.7645 38.8131 38.9683 37.183 39.1822 35.5529C42.096 37.6211 45.2442 39.4856 48.5248 41.1768V41.1666ZM9.95221 14.0456C10.6654 13.7196 11.3684 13.3935 12.0816 13.0573C11.9084 13.6584 11.7555 14.2697 11.6129 14.8912C11.2767 16.3889 12.703 17.5809 14.1803 17.7032C14.3739 18.8952 15.3214 19.9751 16.6866 19.9344C16.5032 20.2095 16.3198 20.4845 16.1365 20.7596C15.7799 20.454 15.4233 20.1585 15.0667 19.8529C13.8543 18.8239 12.6113 17.8254 11.562 16.6436C11.0525 16.073 10.4616 15.1255 9.9624 14.0456H9.95221ZM22.4633 27.494C22.6569 27.4329 22.8607 27.3718 23.0441 27.3106C22.9524 27.545 22.8505 27.7793 22.769 28.0136C22.6671 27.8404 22.5652 27.6672 22.4633 27.494ZM47.6079 79.8615C47.4856 79.7494 47.3735 79.6373 47.2513 79.5355C47.506 79.24 47.7505 78.9445 48.0052 78.6491C48.1478 78.5778 48.2803 78.4963 48.4127 78.4046C51.2247 76.3873 53.7921 74.1866 56.166 71.823C55.6566 72.9437 55.137 74.0644 54.5868 75.1851C53.7514 76.8763 55.1573 78.3434 56.7569 78.588C56.7569 78.6287 56.7365 78.6593 56.7263 78.7C56.655 78.9751 56.6346 79.2298 56.655 79.4641C56.2984 80.0958 55.9316 80.7071 55.5852 81.3388C54.4442 83.4172 57.2663 85.5057 59.2734 84.599C59.2428 84.6601 59.2122 84.7213 59.1919 84.7824C58.6315 86.1578 59.1919 87.2174 60.1496 87.737C59.9866 88.0936 59.8235 88.44 59.6605 88.7965C59.6198 88.8882 59.5994 88.9799 59.5688 89.0614C55.3611 86.2597 51.3368 83.2236 47.6181 79.8717L47.6079 79.8615ZM63.7969 91.7613C64.0313 91.6085 64.2554 91.4149 64.449 91.1602C66.4153 88.603 68.3918 86.0355 70.3582 83.4783C70.4397 84.4869 71.2751 85.2307 72.3041 85.4956C71.0204 88.5011 69.7774 91.527 68.5447 94.5529C66.9451 93.6461 65.3659 92.7088 63.8071 91.7511L63.7969 91.7613ZM80.7807 101.002C81.1373 100.747 81.4531 100.411 81.6875 99.9526C82.0033 99.321 82.3293 98.6995 82.6452 98.078C83.0832 97.9048 83.4704 97.5992 83.7659 97.1203C83.8779 96.9267 84.0002 96.7332 84.1122 96.5396C86.9853 91.7817 89.7973 87.0034 92.5481 82.1946C93.0779 81.3897 93.6281 80.595 94.1782 79.8003C93.6179 81.512 93.0371 83.2134 92.4462 84.9148C91.784 86.7283 91.1217 88.5317 90.4493 90.335C88.6868 94.614 87.0567 98.944 85.559 103.315C83.9594 102.551 82.3701 101.776 80.7807 100.992V101.002ZM99.7206 91.5677C101.738 89.1531 103.602 86.6366 105.548 84.1813C103.613 88.603 101.84 93.096 100.24 97.6501C99.3233 100.258 103.378 102.765 105.029 100.034C105.029 100.034 105.039 100.014 105.049 100.004C105.538 100.055 106.027 100.004 106.496 99.7998C107.036 100.055 107.667 100.146 108.299 100.055C107.117 102.948 105.966 105.852 104.835 108.755C103.602 111.924 108.432 113.564 109.98 110.559C110.418 109.703 110.856 108.847 111.284 108.001C110.693 109.652 110.102 111.292 109.501 112.943C109.41 113.187 109.369 113.411 109.348 113.635C103.297 111.343 97.3569 108.816 91.4987 106.127C94.2393 101.277 96.98 96.4275 99.7206 91.5677ZM127.086 119.483C127.606 117.884 128.115 116.284 128.625 114.695C128.91 114.695 129.195 114.664 129.511 114.552C129.358 115.887 129.185 117.222 129.063 118.567C129.002 119.178 129.205 119.718 129.542 120.166C129.287 120.095 129.022 120.044 128.767 119.972C128.207 119.82 127.657 119.657 127.096 119.494L127.086 119.483ZM139.536 122.438C139.658 122 139.791 121.562 139.913 121.124C140.871 121.348 141.941 121.103 142.715 120.136C142.674 120.299 142.633 120.462 142.593 120.614C141.879 123.477 146.872 124.506 147.911 121.776C149.001 118.913 150.04 116.04 151.069 113.167C151.141 113.839 151.232 114.512 151.304 115.184C151.528 117.283 154.279 117.762 155.797 116.722C155.786 116.814 155.776 116.916 155.766 117.008C155.369 120.095 159.872 120.675 161.054 118.149C161.787 118.658 162.786 118.831 163.794 118.393C168.379 116.437 169.744 112.209 170.59 107.95C170.702 107.747 170.814 107.543 170.926 107.339C170.814 110.997 170.702 114.654 170.6 118.302C170.498 121.603 175.399 122.102 176.102 118.811C176.703 115.969 177.243 113.116 177.742 110.263C177.334 114.96 176.448 122.499 181.909 123.742C183.437 124.089 184.802 123.63 185.516 122.234L185.872 121.541C186.545 121.195 187.064 120.574 187.186 119.657C187.227 119.351 187.268 119.056 187.309 118.75C188.918 115.622 190.528 112.505 192.138 109.377C192.413 114.766 192.586 120.166 192.668 125.576C174.818 126.473 156.897 125.8 139.536 122.418V122.438ZM212.545 124.007C209.916 124.292 207.278 124.537 204.629 124.771C204.649 124.71 204.68 124.659 204.69 124.588C205.8 119.983 206.524 115.357 206.992 110.711C207.115 110.426 207.237 110.141 207.359 109.845C208.062 110.365 209.071 110.406 209.967 110.09C210.273 112.586 210.65 115.072 211.129 117.558C211.496 119.453 213.299 119.972 214.766 119.412C216.05 119.331 217.293 118.567 217.395 117.171C217.486 116.019 217.527 114.868 217.588 113.717L218.851 108.898C220.369 109.448 222.295 108.664 222.672 106.83C222.906 105.668 223.12 104.497 223.314 103.335C224.312 107.502 225.433 111.649 226.666 115.765C227.593 118.862 232.504 118.271 232.147 114.899C232.096 114.379 232.025 113.87 231.964 113.36C232.585 111.476 233.207 109.591 233.828 107.706C235.03 111.934 236.294 116.142 237.639 120.339C237.659 120.421 237.7 120.482 237.73 120.553C229.325 122.031 220.869 123.121 212.535 124.027L212.545 124.007ZM248.57 118.383C248.683 118.179 248.784 117.965 248.846 117.731C250.139 113.024 251.444 108.307 252.737 103.6C253.084 104.364 253.42 105.118 253.766 105.882C254.622 107.777 256.833 107.665 258.107 106.534C258.779 108.154 259.462 109.764 260.165 111.374C261.377 114.165 265.656 112.606 265.442 109.845C265.422 109.54 265.381 109.224 265.361 108.918C265.687 109.896 266.023 110.874 266.349 111.863C266.563 112.515 266.96 112.912 267.419 113.146C261.275 115.245 254.958 116.957 248.57 118.393V118.383ZM292.696 101.399C291.524 97.4056 290.271 93.4424 288.946 89.4995C290.709 92.0772 292.512 94.6446 294.346 97.1815C294.856 97.8844 295.62 98.1391 296.394 98.1086C296.496 98.3429 296.588 98.567 296.689 98.8014C295.813 99.4025 294.947 99.9934 294.051 100.574C293.602 100.859 293.154 101.134 292.696 101.41V101.399ZM315.364 82.1742C315.181 81.298 314.977 80.432 314.774 79.566C316.169 79.4743 317.473 78.3638 317.422 76.642C317.402 75.99 317.351 75.3583 317.31 74.7164C317.494 74.7368 317.667 74.7368 317.85 74.7164C318.085 75.3888 318.329 76.0613 318.553 76.7337C318.676 77.0903 318.879 77.3654 319.134 77.5895C317.932 79.1483 316.669 80.6765 315.364 82.164V82.1742ZM323.923 70.8245C323.953 69.2759 323.973 67.7273 323.994 66.1787C324.493 66.8307 324.972 67.493 325.481 68.145C325.502 68.1756 325.522 68.1858 325.542 68.2163C325.013 69.0925 324.473 69.9687 323.912 70.8245H323.923Z" fill="#FFB103"/>
<path d="M5.41846 6.64896C4.58303 10.7956 5.63242 14.9422 8.19985 18.3247L10.7978 16.338C8.38324 13.8622 6.59011 11.0401 5.3879 7.87155C4.81736 6.3535 2.47407 6.98517 2.21936 8.37077C0.731883 16.4398 7.91458 21.972 14.1192 26.0881C15.4844 26.9948 17.2266 25.5685 16.6357 24.1727C15.6271 21.809 14.6184 19.4454 13.6098 17.0817C12.8151 15.2274 9.89109 16.5519 10.5635 18.396C12.2649 23.0724 15.1482 27.2903 18.9688 30.683C19.7533 31.386 20.8536 31.4267 21.5974 30.5811C22.769 29.2464 23.2173 27.6469 23.0339 25.9658C22.8505 24.2848 19.7737 24.3153 19.7431 26.0779C19.682 28.951 19.6208 31.8342 19.5597 34.7073C19.5291 36.3171 22.117 37.2136 22.7486 35.4001C23.1969 34.1164 23.6452 32.8225 24.1037 31.5388L20.9147 30.846C20.4665 34.9926 20.334 39.1494 20.4767 43.296C20.5276 44.8038 23.2071 45.0076 23.6656 43.5813C24.5214 40.9221 25.367 38.263 26.2228 35.6039L23.0339 34.9111C22.3411 40.0765 22.1475 45.2521 22.4226 50.4277C22.4939 51.7522 24.6436 52.1495 25.3976 51.0594C27.7612 47.6362 28.8412 43.7952 28.5763 39.781C28.4642 37.9981 25.5504 38.2222 25.2855 39.8931C24.3482 45.7208 24.0425 51.5892 24.2972 57.4576C24.3685 59.0062 26.9564 59.1285 27.4861 57.7429C28.3929 55.3283 29.2996 52.9035 30.2064 50.4889L27.0175 49.7961C26.9462 52.9442 26.8647 56.0924 26.7933 59.2405C26.7526 61.0439 29.0551 61.4921 29.9823 59.9333C31.5207 57.3659 32.3459 54.503 32.4071 51.5994C32.4478 49.6534 29.3812 49.2765 29.1061 51.2937C28.4235 56.3471 28.4438 61.431 29.157 66.4436C29.3812 68.0228 31.6735 68.0839 32.3459 66.7289C33.7519 63.8966 34.3326 60.9012 34.2307 57.8244C34.1696 56.0516 31.1743 56.2554 30.94 57.9365C30.2981 62.4804 30.4204 67.0651 31.3169 71.5479C31.592 72.9539 33.9659 73.3716 34.5058 71.8332C36.1359 67.0957 37.165 62.2359 37.5419 57.3048L34.2511 57.4169C35.2088 62.0423 35.8507 66.7289 36.1461 71.446C36.2378 72.9539 38.846 73.1678 39.335 71.7313C40.5474 68.1247 41.7598 64.518 42.9722 60.9114L39.7833 60.2186C39.3962 65.3331 39.009 70.4476 38.6219 75.5621C38.4894 77.2941 41.0365 77.9054 41.8108 76.2549C43.5428 72.5566 45.2646 68.8582 46.9966 65.1599L43.8077 64.4671C43.0334 68.522 42.2692 72.5769 41.4949 76.6318C41.1587 78.425 43.9299 78.8732 44.6839 77.3246C46.3547 73.9116 48.0256 70.5087 49.6965 67.0957L46.5075 66.4029C45.7944 71.3543 45.0812 76.3058 44.368 81.2573C44.1541 82.755 46.4057 83.6006 47.3532 82.2965C50.0225 78.6389 52.1213 74.6757 53.568 70.4883L50.3791 69.7955C49.8289 74.747 49.6353 79.6985 49.7474 84.65C49.778 86.1476 52.5186 86.382 52.9363 84.9352C53.6699 82.378 54.4034 79.8208 55.137 77.2635L51.9481 76.5707C51.9684 80.5136 52.4575 84.3851 53.5272 88.1853C53.8431 89.306 55.6871 90.1109 56.5022 88.817C59.0594 84.7315 60.8627 80.4015 61.8918 75.8066L58.601 75.9187C58.7742 79.5864 58.6519 83.2542 58.2648 86.9219C58.0508 88.9494 61.0869 89.1328 61.5657 87.2276C62.7578 82.5003 63.96 77.7831 65.152 73.0558L61.851 72.7501C61.7491 78.4759 61.6472 84.2017 61.5454 89.9275C61.5148 91.5881 63.9905 92.3726 64.7343 90.6203C66.9859 85.3428 68.7179 79.9125 69.9201 74.3701L66.6293 74.4821C66.8127 81.0535 66.3033 87.6453 65.2029 94.176C64.9075 95.8978 67.7704 96.5396 68.3918 94.8688C70.5517 89.1022 72.2532 83.2032 73.4961 77.2228L70.1952 76.9171C69.6959 82.9689 69.7265 89.0411 70.2665 95.0725C70.4295 96.937 73.1599 96.5396 73.5573 94.9605C74.6678 90.5795 75.7783 86.1986 76.8786 81.8075L73.5878 81.9195C74.8104 89.1328 75.8496 96.3868 76.7156 103.651C76.9296 105.424 79.711 105.22 80.0064 103.539C81.066 97.6909 82.1154 91.8429 83.1749 85.9948L79.8842 86.1069C80.5668 92.0161 81.2494 97.915 81.932 103.824C82.095 105.281 84.6522 105.607 85.1209 104.109C87.4744 96.5192 89.8177 88.929 92.1711 81.3388L88.9822 80.646C88.8804 89.143 88.7887 97.64 88.6868 106.137C88.6664 108.093 91.621 108.45 91.9878 106.443C93.2918 99.3006 94.5959 92.1485 95.9 85.0066L92.599 84.7009C92.2425 93.0043 91.8859 101.308 91.5293 109.601C91.458 111.241 94.0763 112.077 94.7182 110.294C96.9392 104.15 98.712 97.8845 100.047 91.5372L96.7558 91.6493C97.0513 99.1478 97.3366 106.636 97.632 114.135C97.7033 115.969 100.587 115.632 100.923 114.023C102.37 107.258 103.816 100.493 105.263 93.7277L101.962 93.422C101.636 98.8727 101.942 104.313 102.899 109.662C103.215 111.435 105.823 111.231 106.19 109.55C107.403 104.099 108.819 98.6995 110.459 93.3303L107.27 93.0451C107.616 100.747 108.401 108.399 109.644 115.999C109.899 117.538 112.171 117.68 112.833 116.284C116.012 109.55 117.387 102.296 116.969 95.0318C116.867 93.2794 113.852 93.4322 113.678 95.1438C112.986 101.695 112.853 108.266 113.24 114.807C113.332 116.295 115.971 116.549 116.429 115.092C118.742 107.624 120.311 100.014 121.075 92.3217L117.774 92.0161C117.234 99.698 116.694 107.37 116.154 115.052L119.455 115.357C119.924 108.389 120.617 101.44 121.554 94.502L118.253 94.1963C117.173 102.663 116.816 111.17 117.132 119.657C117.204 121.521 120.056 121.124 120.423 119.545C121.004 117.089 121.595 114.634 122.175 112.179C122.634 110.233 119.333 109.937 118.874 111.873C118.294 114.328 117.703 116.784 117.122 119.239L120.413 119.127C120.107 110.915 120.494 102.683 121.544 94.4918C121.798 92.5153 118.508 92.2096 118.243 94.1861C117.305 101.124 116.613 108.073 116.144 115.041C116.012 117.018 119.302 117.334 119.445 115.347C119.985 107.665 120.525 99.9934 121.065 92.3115C121.208 90.335 117.968 90.0192 117.764 92.0059C117.02 99.4331 115.553 106.799 113.332 114.002L116.521 114.288C116.144 108.012 116.297 101.725 116.969 95.4495L113.678 95.5616C114.055 102.276 112.67 108.99 109.746 115.204L112.935 115.49C111.692 107.889 110.897 100.228 110.561 92.5356C110.49 91.038 107.82 90.8037 107.372 92.2504C105.66 97.8743 104.163 103.539 102.889 109.244L106.18 109.132C105.263 104.048 104.937 98.8931 105.253 93.7175C105.375 91.7206 102.37 91.4557 101.952 93.4118C100.505 100.177 99.0584 106.942 97.6116 113.707L100.902 113.595C100.607 106.096 100.322 98.6078 100.026 91.1093C99.9549 89.2754 97.0717 89.6116 96.7355 91.2214C95.4619 97.3037 93.7503 103.305 91.621 109.204L94.8099 109.896C95.1665 101.593 95.5231 93.2896 95.8797 84.9964C95.9612 83.03 92.9455 82.704 92.5787 84.6907C91.2746 91.8327 89.9705 98.9848 88.6664 106.127L91.9674 106.432C92.0693 97.9354 92.161 89.4384 92.2628 80.9415C92.2832 79.3623 89.6445 78.4046 89.0739 80.2487C86.7204 87.8389 84.3772 95.4291 82.0237 103.019L85.2126 103.305C84.53 97.3954 83.8474 91.4965 83.1648 85.5873C82.961 83.8043 80.1694 84.0183 79.874 85.6994C78.8144 91.5474 77.765 97.3954 76.7054 103.243L79.9962 103.131C79.1302 95.857 78.091 88.6132 76.8684 81.3999C76.5628 79.5864 73.9852 79.8717 73.5776 81.512C72.4671 85.8929 71.3566 90.2739 70.2563 94.665L73.5471 94.5529C73.0275 88.7966 73.0173 83.0097 73.4859 77.2228C73.649 75.2259 70.5925 74.9712 70.185 76.9171C69.0031 82.6429 67.373 88.2668 65.3048 93.7888L68.4937 94.4816C69.645 87.6759 70.0933 80.8192 69.9099 73.9625C69.8589 72.1185 66.9655 72.4751 66.6191 74.0746C65.4678 79.3521 63.797 84.5175 61.6472 89.5505L64.8362 90.2433C64.938 84.5175 65.0399 78.7917 65.1418 73.066C65.1826 71.0691 62.3299 70.8144 61.8408 72.7603C60.6488 77.4877 59.4466 82.2048 58.2546 86.9321L61.5555 87.2378C61.9733 83.2949 62.0751 79.3521 61.8816 75.4093C61.7899 73.5652 58.9474 73.9218 58.5908 75.5213C57.684 79.5559 56.0845 83.4681 53.8329 87.0646L56.8078 87.6962C55.8196 84.1813 55.2592 80.5645 55.2389 76.9069C55.2389 76.1326 54.8721 75.45 54.0061 75.2666C53.2827 75.1138 52.2639 75.4704 52.0499 76.2141C51.3164 78.7714 50.5828 81.3286 49.8493 83.8859L53.0382 84.1711C52.9363 79.4947 53.1706 74.8081 53.6801 70.1419C53.8634 68.4609 51.0821 67.7171 50.4911 69.4491C49.1361 73.392 47.2105 77.1209 44.694 80.5645L47.6792 81.6037C48.3924 76.6522 49.1055 71.7007 49.8187 66.7493C50.0734 64.9663 47.3939 64.4773 46.6298 66.0565C44.9589 69.4695 43.2881 72.8724 41.6172 76.2854L44.8061 76.9782C45.5804 72.9233 46.3445 68.8684 47.1188 64.8135C47.4551 63.0408 44.6635 62.5415 43.9299 64.1207C42.1979 67.819 40.4761 71.5174 38.7441 75.2157L41.933 75.9085C42.3202 70.794 42.7073 65.6795 43.0945 60.565C43.2168 58.9145 40.4965 58.1097 39.9056 59.8722C38.6932 63.4788 37.4808 67.0855 36.2684 70.6921L39.4573 70.9774C39.1517 66.2602 38.52 61.5737 37.5623 56.9482C37.2261 55.3181 34.4039 55.2468 34.2715 57.0603C33.9251 61.7265 32.998 66.3316 31.4596 70.8042L34.6485 71.0895C33.8028 66.8613 33.6806 62.6027 34.2919 58.3134L31.0011 58.4255C31.0826 60.9522 30.4611 63.4177 29.32 65.7203L32.5089 66.0055C31.8365 61.2476 31.8161 56.4694 32.4682 51.6809L29.1672 51.3752C29.1061 54.0649 28.3725 56.561 26.9564 58.9349L30.1453 59.6277C30.2166 56.4795 30.2981 53.3314 30.3694 50.1832C30.4102 48.5531 27.8529 47.6973 27.1805 49.4904C26.2737 51.905 25.367 54.3298 24.4602 56.7444L27.6492 57.0297C27.3945 51.4466 27.751 45.843 28.6476 40.2905L25.3568 40.4025C25.5606 43.5507 24.6538 46.6887 22.7996 49.3682L25.7745 49.9998C25.5198 45.0993 25.7338 40.1988 26.396 35.3084C26.6201 33.6172 23.7573 32.8836 23.2071 34.6156C22.3513 37.2747 21.5057 39.9339 20.6499 42.593L23.8388 42.8783C23.7063 39.0067 23.8693 35.125 24.287 31.2535C24.4704 29.5725 21.6992 28.8287 21.0981 30.5607C20.6499 31.8444 20.2016 33.1383 19.7431 34.422L22.932 35.1148C22.9931 32.2418 23.0543 29.3585 23.1154 26.4854L19.8246 26.5975C19.9265 27.5042 19.631 28.197 19.0095 28.9L21.6381 28.7981C17.9907 25.5583 15.301 21.646 13.6811 17.1836L10.6348 18.4979C11.6435 20.8615 12.6521 23.2252 13.6607 25.5889L16.1772 23.6735C10.971 20.2197 4.32832 15.6452 5.59166 8.78848L2.42313 9.28771C3.70684 12.6804 5.69355 15.7776 8.28135 18.4265C9.7077 19.8936 12.0917 18.0496 10.8793 16.4398C8.81114 13.7094 8.13872 10.3677 8.80095 7.05649C9.19829 5.09016 5.89731 4.80489 5.49997 6.75084L5.41846 6.64896Z" fill="#E88213"/>
<path d="M120.606 97.0082C119.649 103.121 119.832 109.316 121.136 115.316C121.401 116.519 123.296 117.171 124.111 115.948C128.604 109.234 130.825 101.603 130.632 93.7989C130.591 92.2706 127.922 92.0974 127.443 93.5136C125.038 100.727 123.143 108.073 121.788 115.5L125.089 115.805C125.629 111.19 126.169 106.585 126.709 101.97L123.418 102.082C124.59 108.674 126.261 115.153 128.38 121.511C128.92 123.11 131.233 122.306 131.549 121.012C133.077 114.685 133.505 108.215 132.883 101.797C132.72 100.095 129.603 100.156 129.592 101.909C129.521 108.623 129.44 115.327 129.368 122.041C129.348 123.976 132.517 124.364 132.669 122.346C133.118 116.539 133.556 110.732 134.004 104.924L130.713 105.036C131.447 111.221 132.18 117.395 132.914 123.579C133.118 125.321 135.97 125.179 136.205 123.467C137.254 115.836 138.293 108.215 139.343 100.584L136.052 100.696C136.235 109.519 136.429 118.352 136.612 127.175C136.653 128.938 139.689 128.755 139.903 127.063C140.83 119.993 141.757 112.932 142.674 105.862L139.383 105.974C140.097 111.384 140.82 116.794 141.533 122.193C141.757 123.895 144.691 123.844 144.824 122.081C145.374 115.255 145.924 108.419 146.474 101.593L143.184 101.705C145.374 110.457 147.554 119.218 149.745 127.97C150.132 129.529 152.964 129.723 153.036 127.858C153.433 117.476 153.83 107.095 154.228 96.7127L150.937 96.8248C152.465 105.444 154.666 113.931 157.498 122.234C158.109 124.017 160.717 122.896 160.667 121.317C160.493 115.999 160.025 110.711 159.24 105.454C158.945 103.488 155.735 104.018 155.949 105.974C156.489 110.895 157.417 115.754 158.721 120.523C159.159 122.142 161.726 122.234 162.011 120.41C162.562 116.926 163.122 113.442 163.672 109.968L160.381 110.08C161.797 117.211 163.214 124.343 164.63 131.465C164.956 133.125 167.737 133.146 167.921 131.353C168.776 123.345 169.062 115.306 168.797 107.288L165.506 107.808C166.606 113.666 167.707 119.524 168.807 125.382C169.113 127.002 172.088 127.084 172.098 125.27C172.128 120.828 172.159 116.386 172.189 111.944L168.899 112.056C169.999 117.456 171.089 122.856 172.189 128.255C172.536 129.957 175.185 129.896 175.48 128.143C176.621 121.531 177.457 114.878 177.976 108.205L174.686 108.317C175.317 114.114 175.959 119.921 176.591 125.719C176.784 127.461 179.657 127.318 179.882 125.606C180.717 119.361 181.563 113.116 182.398 106.87L179.107 106.982C180.635 113.88 182.164 120.777 183.702 127.675C183.875 128.449 184.67 129.132 185.587 128.938C189.418 128.113 189.306 124.017 189.489 121.144C189.744 116.936 190.009 112.739 190.263 108.531L186.962 108.225C186.84 114.746 187.4 121.236 188.705 127.614C189.061 129.376 191.608 129.193 191.995 127.501C193.136 122.652 193.89 117.751 194.267 112.82L190.976 112.932L192.708 126.33C192.933 128.092 195.714 127.919 195.999 126.218C197.14 119.453 197.538 112.627 197.263 105.811L193.972 106.33C194.767 112.474 196.274 118.495 198.414 124.323C198.995 125.902 201.256 125.148 201.582 123.824C203.06 117.843 203.824 111.751 203.865 105.648L200.564 105.342C200.665 115.235 201.348 125.087 202.652 134.878C202.897 136.722 205.535 136.365 205.943 134.766C207.97 126.9 208.459 118.801 207.451 110.844L204.282 111.761C205.444 114.522 206.483 117.323 207.359 120.176C207.869 121.827 210.232 121.857 210.65 120.064C212.27 113.248 213.095 106.33 213.126 99.382L209.835 99.4941C211.18 105.393 212.535 111.292 213.88 117.191C214.195 118.577 216.498 119.035 217.069 117.476C219.025 112.087 219.87 106.534 219.646 100.9L216.355 101.42C216.946 107.329 217.853 113.197 219.106 119.005C219.432 120.512 221.592 120.706 222.295 119.29C223.681 116.457 224.241 113.472 224.078 110.406L220.787 110.925C221.368 115.5 222.489 119.972 224.088 124.313C224.547 125.545 226.707 125.413 227.155 124.201C228.337 120.95 228.979 117.599 228.989 114.196L225.82 114.695C226.9 118.026 227.98 121.358 229.07 124.69C229.478 125.963 231.699 125.759 232.137 124.577C234.012 119.483 234.979 114.196 234.939 108.857L231.648 108.969C232.809 116.254 235.071 123.324 238.392 129.967C239.085 131.353 241.316 130.965 241.561 129.468C242.651 122.968 242.845 116.386 242.172 109.876L238.882 110.395C239.248 113.89 240.644 117.13 242.896 119.901C243.731 120.92 245.738 120.38 245.84 119.055C246.268 113.544 246.696 108.042 247.124 102.53L243.833 102.642C244.76 108.806 246.726 114.776 249.661 120.329C250.435 121.786 252.442 121.256 252.829 119.83C253.787 116.315 253.991 112.718 253.491 109.163C253.216 107.196 249.926 107.726 250.201 109.682C250.659 112.983 250.415 116.264 249.528 119.524L252.697 119.025C249.875 113.696 248 108.032 247.114 102.123C246.859 100.442 243.955 100.462 243.823 102.235C243.395 107.747 242.967 113.248 242.539 118.76L245.483 117.914C243.568 115.561 242.468 112.83 242.162 109.866C241.958 107.889 238.668 108.419 238.871 110.385C239.523 116.631 239.299 122.917 238.25 129.152L241.418 128.653C238.219 122.244 236.039 115.469 234.918 108.45C234.653 106.799 231.607 106.779 231.628 108.562C231.668 113.635 230.823 118.668 229.05 123.498L232.117 123.385C231.037 120.054 229.957 116.722 228.866 113.391C228.408 111.975 225.698 112.403 225.698 113.89C225.698 117.028 225.168 120.125 224.078 123.121L227.145 123.008C225.637 118.933 224.628 114.715 224.088 110.416C223.834 108.419 220.696 109 220.797 110.935C220.93 113.452 220.349 115.907 219.218 118.22L222.407 118.505C221.164 112.698 220.247 106.83 219.656 100.92C219.453 98.9134 216.294 99.5043 216.366 101.44C216.559 106.493 215.734 111.577 213.992 116.407L217.181 116.692C215.836 110.793 214.481 104.894 213.136 98.9949C212.779 97.4157 209.845 97.2629 209.845 99.1069C209.815 106.045 208.979 112.973 207.369 119.789L210.66 119.677C209.692 116.559 208.602 113.493 207.329 110.477C206.636 108.826 203.946 109.713 204.16 111.394C205.138 119.096 204.608 126.89 202.642 134.491L205.933 134.379C204.669 124.873 203.956 115.286 203.854 105.678C203.834 103.732 200.564 103.376 200.553 105.373C200.513 111.486 199.749 117.568 198.271 123.548L201.44 123.049C199.392 117.476 198.006 111.72 197.242 105.841C196.977 103.834 193.87 104.425 193.951 106.361C194.216 112.892 193.768 119.443 192.678 125.933L195.969 125.82L194.237 112.423C194.013 110.722 191.078 110.772 190.946 112.535C190.569 117.466 189.815 122.367 188.674 127.216L191.965 127.104C190.712 121.001 190.111 114.787 190.233 108.541C190.274 106.595 187.054 106.229 186.932 108.236C186.728 111.598 186.514 114.96 186.31 118.322C186.208 119.921 186.127 121.521 186.015 123.11C185.974 123.732 185.974 125.698 185.078 125.892L186.962 127.155C185.434 120.258 183.906 113.36 182.367 106.463C182.001 104.812 179.311 104.782 179.077 106.575C178.241 112.82 177.396 119.066 176.56 125.311L179.851 125.199C179.219 119.402 178.577 113.595 177.946 107.797C177.762 106.086 174.787 106.157 174.655 107.91C174.125 114.583 173.29 121.226 172.159 127.848L175.45 127.736C174.349 122.336 173.259 116.936 172.159 111.537C171.833 109.927 168.878 109.825 168.868 111.649C168.838 116.091 168.807 120.533 168.776 124.975L172.067 124.863C170.967 119.005 169.867 113.146 168.766 107.288C168.389 105.291 165.414 105.872 165.475 107.808C165.73 115.551 165.414 123.314 164.589 131.047L167.88 130.935C166.464 123.803 165.047 116.671 163.631 109.55C163.295 107.848 160.616 107.91 160.341 109.662C159.79 113.146 159.23 116.631 158.68 120.105L161.971 119.993C160.667 115.215 159.739 110.355 159.199 105.444L155.909 105.964C156.683 111.221 157.162 116.508 157.335 121.827L160.504 120.91C157.763 112.871 155.664 104.639 154.187 96.295C153.891 94.6547 150.957 94.6037 150.896 96.4071C150.499 106.789 150.101 117.171 149.704 127.552L152.995 127.44C150.804 118.689 148.624 109.927 146.434 101.175C146.036 99.5858 143.285 99.433 143.143 101.287C142.593 108.113 142.042 114.95 141.492 121.776L144.783 121.664C144.07 116.254 143.347 110.844 142.633 105.444C142.399 103.712 139.567 103.824 139.343 105.556C138.415 112.627 137.488 119.687 136.571 126.758L139.862 126.646C139.679 117.823 139.485 108.99 139.302 100.167C139.261 98.3938 136.235 98.5975 136.011 100.279C134.962 107.91 133.922 115.53 132.873 123.161L136.164 123.049C135.43 116.865 134.697 110.691 133.963 104.507C133.759 102.805 130.805 102.866 130.672 104.619C130.224 110.426 129.786 116.233 129.338 122.041L132.639 122.346C132.71 115.632 132.792 108.928 132.863 102.214L129.572 102.326C130.173 108.47 129.694 114.654 128.227 120.706L131.396 120.207C129.358 114.114 127.799 107.879 126.679 101.572C126.383 99.8914 123.592 99.9118 123.388 101.685C122.848 106.3 122.308 110.905 121.768 115.52C121.534 117.507 124.712 117.782 125.069 115.826C126.383 108.663 128.197 101.583 130.509 94.6241L127.321 94.3389C127.494 101.257 125.395 108.236 121.422 114.185L124.396 114.817C123.143 109.061 122.96 103.203 123.877 97.3444C124.183 95.3679 120.882 95.0724 120.576 97.0387L120.606 97.0082Z" fill="#E88213"/>
<path d="M210.161 108.623L207.797 129.825C207.604 131.577 210.232 132.147 210.986 130.517C214.063 123.864 216.783 117.069 219.127 110.182L215.938 109.896C216.763 114.634 217.598 119.371 218.424 124.099C218.668 125.515 221.093 125.912 221.612 124.384C223.161 119.799 224.027 115.092 224.109 110.314L220.818 110.426C221.388 117.843 221.949 125.27 222.519 132.687C222.631 134.155 225.29 134.46 225.708 132.973C228.194 124.129 229.946 115.164 230.874 106.096L227.583 106.208C229.539 113.258 231.892 120.186 234.674 126.972C235.173 128.184 237.282 128.103 237.74 126.86C239.931 120.93 240.736 114.726 240.135 108.531C239.972 106.83 236.844 106.891 236.844 108.643C236.844 111.363 237.109 114.033 237.751 116.682C238.168 118.414 240.624 118.281 241.041 116.57C242.315 111.384 243.599 106.208 244.872 101.022L241.581 101.134C242.916 108.205 244.098 115.306 245.137 122.428C245.341 123.864 247.837 124.231 248.326 122.713C249.997 117.446 250.69 112.077 250.374 106.636L247.083 107.156C248.265 112.443 249.936 117.609 252.075 122.611C252.564 123.752 254.755 123.803 255.142 122.499C256.65 117.375 257.567 112.158 257.801 106.87L254.633 107.37C255.56 108.908 256.049 110.477 256.161 112.25C256.252 113.737 258.891 113.992 259.35 112.535C260.348 109.305 260.898 106.035 260.908 102.703L257.618 102.816C258.626 109.774 261.031 116.488 264.749 122.55C265.585 123.905 267.531 123.559 267.918 122.051C269.609 115.48 270.2 108.776 269.742 102.082L266.451 102.602C267.001 105.546 267.867 108.409 269.028 111.18C269.517 112.331 271.698 112.362 272.095 111.068C273.094 107.838 273.715 104.558 273.868 101.206L270.577 101.318C271.851 107.084 273.756 112.708 276.272 118.088C276.792 119.188 278.952 119.31 279.339 117.976C280.877 112.545 281.815 107.044 282.039 101.461L278.87 101.96C280.062 104.935 281.58 107.736 283.373 110.436C284.015 111.404 285.859 111.017 286.216 109.988C288.08 104.609 289.13 99.0663 289.262 93.4526L285.971 93.5646C287.296 98.6893 289.313 103.59 292.084 108.175C292.899 109.519 294.907 109.204 295.253 107.675C296.72 101.308 297.352 94.8687 297.25 88.389L293.959 88.9086C294.448 91.9243 295.997 94.4714 298.391 96.4988C299.349 97.3139 300.867 96.4377 301.03 95.3883C301.315 93.5545 301.6 91.7104 301.896 89.8765C302.028 89.0411 302.161 88.2056 302.283 87.3702C302.364 86.871 302.436 86.3718 302.517 85.8624L302.599 85.3631C302.874 84.6296 302.558 84.599 301.671 85.2816L300.581 84.7416L300.612 83.4579L302.15 82.8161H301.987C299.858 82.6632 299.45 85.7299 301.58 85.8725C303.128 85.9744 304.178 84.5277 303.526 83.2236C302.762 81.7056 300.592 82.001 299.787 83.3764C299.359 84.11 299.318 85.0167 299.186 85.8216C299.033 86.82 298.87 87.8287 298.717 88.8271C298.391 90.9157 298.065 93.0043 297.739 95.0929L300.378 93.9824C298.646 92.5153 297.606 90.5489 297.26 88.389C296.934 86.3718 293.939 86.9932 293.969 88.9086C294.071 95.0929 293.358 101.287 291.962 107.37L295.131 106.87C292.512 102.54 290.515 97.9048 289.272 93.0552C288.875 91.5066 286.022 91.2927 285.982 93.1673C285.859 98.5059 284.932 103.804 283.149 108.928L285.992 108.48C284.352 106.025 283.017 103.396 281.927 100.676C281.377 99.3006 278.819 99.6674 278.758 101.175C278.544 106.473 277.739 111.761 276.272 116.906L279.339 116.794C276.935 111.659 275.111 106.32 273.898 100.819C273.542 99.2191 270.689 99.0968 270.608 100.931C270.455 103.997 269.966 107.044 269.049 110.008L272.115 109.896C271.046 107.38 270.282 104.792 269.782 102.113C269.416 100.136 266.359 100.676 266.492 102.632C266.919 109.041 266.278 115.49 264.658 121.776L267.826 121.277C264.24 115.429 261.907 109.051 260.939 102.337C260.694 100.676 257.648 100.666 257.648 102.449C257.648 105.505 257.22 108.552 256.314 111.506L259.502 111.791C259.38 109.784 258.779 107.869 257.73 106.127C257.017 104.945 254.632 104.965 254.561 106.626C254.337 111.628 253.553 116.621 252.116 121.48L255.183 121.368C253.155 116.61 251.566 111.73 250.435 106.697C249.997 104.741 247.032 105.251 247.144 107.217C247.419 112.077 246.798 116.987 245.3 121.694L248.489 121.98C247.45 114.858 246.268 107.757 244.933 100.686C244.597 98.8931 242.05 99.1376 241.643 100.798C240.369 105.984 239.085 111.16 237.812 116.346L241.103 116.233C240.532 113.87 240.196 111.455 240.206 109.02L236.915 109.132C237.465 114.756 236.722 120.451 234.725 125.851L237.791 125.739C235.122 119.208 232.83 112.545 230.945 105.76C230.507 104.191 227.837 104.008 227.654 105.872C226.747 114.664 225.117 123.396 222.703 131.974L225.892 132.259C225.321 124.842 224.761 117.415 224.19 109.998C224.058 108.287 220.93 108.358 220.899 110.11C220.818 114.614 220.084 119.076 218.617 123.396L221.806 123.681C220.981 118.943 220.145 114.206 219.32 109.479C219.076 108.052 216.651 107.665 216.131 109.193C213.788 116.091 211.068 122.876 207.991 129.529L211.18 130.222C211.964 123.151 212.749 116.081 213.543 109.02C213.768 107.044 210.467 106.738 210.242 108.715L210.161 108.623Z" fill="#E88213"/>
<path d="M259.299 99.5655C257.944 104.283 256.578 109.01 255.223 113.727L258.412 114.012C257.872 108.154 257.322 102.286 256.782 96.4276L253.491 96.9472C254.5 104.639 254.52 112.413 253.553 120.156C253.328 121.929 255.977 122.448 256.741 120.849C259.961 114.196 262.661 107.36 264.841 100.37L261.652 100.085C262.539 104.486 263.639 108.837 264.953 113.136C265.34 114.41 267.602 115.082 268.142 113.422C269.813 108.266 270.862 102.979 271.209 97.6298L267.918 97.7419C268.325 103.957 268.977 110.141 269.874 116.295C270.088 117.772 272.503 118.047 273.063 116.58C275.192 110.987 276.598 105.189 277.23 99.3108L273.929 99.0052C273.756 102.469 273.929 105.933 274.479 109.346C274.764 111.15 277.383 110.874 277.77 109.234C279.105 103.641 280.439 98.0577 281.784 92.4644L278.493 92.5764C279.064 97.7622 279.909 102.917 281.04 108.012C281.366 109.468 283.577 109.774 284.229 108.297C286.175 103.896 287.316 99.2395 287.581 94.5224L284.29 94.6345C285.177 98.6486 286.053 102.663 286.939 106.677C287.276 108.195 289.405 108.368 290.128 106.962C293.185 100.992 294.519 94.4714 294.163 87.951L290.872 88.4706C291.779 92.6172 293.368 96.56 295.671 100.177C296.374 101.277 298.136 101.389 298.737 100.065C300.958 95.205 301.834 89.9988 301.396 84.7926L298.106 85.3122C299.399 89.8969 301.009 94.4001 302.945 98.7709C303.617 100.279 305.777 99.6572 306.114 98.2716C307.265 93.5545 307.713 88.7762 307.55 83.9674L304.259 84.487C305.329 89.4792 306.847 94.3696 308.813 99.1071C309.425 100.574 311.748 100.044 311.982 98.6079C313.031 92.3625 313.337 86.0763 312.95 79.8004L309.659 80.32C310.046 81.8992 310.433 83.4784 310.821 85.0575C311.248 86.8099 313.673 86.6469 314.111 84.9455C315.252 80.5849 315.904 76.153 316.067 71.6906L312.777 71.8027C313.877 76.5198 314.967 81.2471 316.067 85.9643C316.475 87.7268 318.92 87.5333 319.358 85.8522C320.774 80.4728 321.202 74.961 320.723 69.4899C320.56 67.6357 317.82 68.0126 317.433 69.602C316.526 73.3309 316.302 77.1107 316.689 80.8804C316.842 82.3373 319.419 82.6531 319.878 81.1656C321.549 75.6946 322.669 70.1216 323.189 64.4773L319.898 64.5894C320.418 69.2556 320.948 73.932 321.467 78.5982C321.63 80.0959 324.126 80.3302 324.656 78.8835C327.264 71.7517 328.782 64.3449 329.098 56.8667L325.807 56.9788C326.337 60.0149 326.867 63.0612 327.407 66.0973C327.651 67.5134 330.076 67.9108 330.596 66.3825C331.9 62.5416 332.43 58.6293 332.206 54.6355C332.114 52.9239 328.884 53.0054 328.915 54.7476C328.966 59.3119 329.445 63.8253 330.412 68.2775C330.779 69.979 333.387 69.9178 333.703 68.1655C335.048 60.779 335.272 53.2703 334.396 45.8736C334.162 43.8564 331.064 44.4677 331.105 46.3932C331.197 50.2546 332.104 54.0038 333.734 57.5086C334.437 59.0164 336.546 58.395 336.902 57.0094C338.308 51.6707 338.594 46.1691 337.799 40.7693L334.508 41.2889C334.997 43.2145 335.486 45.1401 335.985 47.0657C336.413 48.7569 338.909 48.7161 339.276 46.9536C340.203 42.6236 340.784 38.2528 341.039 33.8515L337.748 33.9636C338.349 36.6839 338.95 39.4143 339.551 42.1346C339.908 43.7545 342.679 43.8462 342.842 42.0225C343.107 39.0271 342.975 36.0318 342.404 33.0874C342.058 31.3045 339.511 31.5286 339.113 33.1995C336.515 43.9582 333.367 54.6049 329.679 65.109L332.746 64.9969C331.075 61.6654 330.107 58.1504 329.822 54.4521C329.679 52.5775 326.938 53.0054 326.531 54.5642C325.278 59.3017 324.035 64.0392 322.781 68.7767L326.072 68.6647C325.96 65.3128 325.848 61.9608 325.736 58.6089C325.685 57.0399 323.097 56.9686 322.547 58.3236C319.847 64.9765 317.147 71.6193 314.437 78.2722L317.626 78.5574C317.382 75.3074 317.137 72.0472 316.893 68.7971C316.76 66.9836 313.918 67.2689 313.602 68.9092C311.799 78.0888 308.599 86.9933 304.137 95.3986L307.326 96.0914C307.764 86.596 307.509 77.0903 306.541 67.656C306.358 65.8731 303.536 66.0871 303.251 67.7681C301.366 78.7306 296.995 89.306 290.444 98.6894L293.429 99.7286C293.46 96.3563 293.49 92.984 293.521 89.6117C293.531 88.2872 291.453 87.034 290.536 88.5725C288.508 91.9448 286.022 95.0725 283.078 97.803C281.56 99.209 283.618 101.593 285.156 100.167C288.325 97.2325 291.035 93.9722 293.205 90.3554L290.22 89.3162C290.189 92.6885 290.159 96.0608 290.128 99.4331C290.118 100.819 292.105 101.919 293.113 100.472C299.99 90.6203 304.575 79.5763 306.552 68.0738L303.261 68.1858C304.198 77.345 304.453 86.5654 304.035 95.7959C303.954 97.5585 306.368 98.0984 307.224 96.4887C311.819 87.8389 315.059 78.6491 316.903 69.2148L313.612 69.3269C313.857 72.577 314.101 75.8372 314.346 79.0872C314.458 80.6358 316.964 80.7581 317.535 79.3725C320.234 72.7196 322.934 66.0769 325.644 59.424L322.455 59.1387C322.568 62.4906 322.68 65.8425 322.792 69.1945C322.853 71.0793 325.685 70.6208 326.082 69.0824C327.336 64.3449 328.579 59.6074 329.832 54.8698L326.541 54.9819C326.847 58.9247 327.927 62.7555 329.709 66.3214C330.27 67.4421 332.307 67.5236 332.776 66.2093C336.546 55.4506 339.765 44.539 342.424 33.5153L339.134 33.6274C339.653 36.3069 339.806 39.0068 339.561 41.7372L342.852 41.6251C342.251 38.9049 341.65 36.1744 341.049 33.4542C340.692 31.8445 337.86 31.7324 337.758 33.5663C337.514 37.9574 336.923 42.3281 335.996 46.6683L339.286 46.5562C338.797 44.6307 338.308 42.7051 337.809 40.7795C337.31 38.854 334.223 39.3124 334.518 41.2991C335.272 46.4442 334.946 51.63 333.612 56.7139L336.78 56.2147C335.262 52.9341 334.478 49.4803 334.396 45.8838L331.105 46.4034C331.951 53.5454 331.696 60.7382 330.402 67.87L333.693 67.7579C332.786 63.5808 332.257 59.3323 332.206 55.0532L328.915 55.1653C329.108 58.5783 328.63 62.022 327.509 65.3026L330.698 65.5878C330.168 62.5517 329.638 59.5055 329.098 56.4694C328.813 54.8189 325.879 54.7781 325.807 56.5815C325.502 63.7947 324.096 70.9367 321.579 77.8239L324.768 78.1092C324.249 73.443 323.719 68.7666 323.199 64.1004C323.006 62.3785 320.061 62.4702 319.908 64.2124C319.409 69.5816 318.401 74.9101 316.811 80.1264L320 80.4117C319.633 76.907 319.908 73.4124 320.754 69.9586L317.463 70.0707C317.922 75.2768 317.433 80.5034 316.088 85.6077L319.379 85.4956C318.278 80.7785 317.188 76.0511 316.088 71.334C315.721 69.7548 312.858 69.602 312.797 71.4461C312.634 75.9085 311.982 80.3404 310.841 84.7009L314.132 84.5889C313.745 83.0097 313.357 81.4305 312.97 79.8513C312.491 77.9156 309.557 78.3944 309.679 80.3709C310.046 86.3718 309.7 92.3829 308.701 98.3531L311.87 97.8539C310.005 93.3711 308.569 88.7558 307.56 84.0285C307.143 82.052 304.208 82.6022 304.269 84.5481C304.422 89.0615 303.903 93.5953 302.823 98.0271L305.991 97.5279C304.168 93.4017 302.619 89.1838 301.396 84.8538C300.867 82.9689 297.943 83.3663 298.106 85.3734C298.493 90.0396 297.627 94.6854 295.65 99.0358L298.717 98.9237C296.567 95.531 295.019 91.8836 294.163 88.0019C293.735 86.0458 290.76 86.5654 290.872 88.5215C291.198 94.502 289.843 100.472 287.041 105.933L290.23 106.218C289.344 102.204 288.468 98.1901 287.581 94.176C287.225 92.5662 284.392 92.4542 284.29 94.2881C284.036 98.7607 282.986 103.101 281.152 107.278L284.341 107.563C283.21 102.469 282.355 97.314 281.794 92.1282C281.591 90.2841 278.88 90.6305 278.503 92.2402C277.169 97.8335 275.834 103.417 274.489 109.01L277.78 108.898C277.281 105.75 277.087 102.581 277.25 99.3822C277.342 97.4158 274.163 97.0796 273.949 99.0765C273.348 104.7 272.044 110.212 270.007 115.571L273.195 115.857C272.299 109.703 271.647 103.519 271.239 97.3038C271.127 95.582 268.061 95.6838 267.948 97.4158C267.612 102.5 266.685 107.523 265.096 112.423L268.285 112.708C266.981 108.409 265.88 104.059 264.984 99.6572C264.709 98.2818 262.284 97.803 261.795 99.372C259.625 106.361 256.915 113.197 253.695 119.85L256.884 120.543C257.883 112.535 257.862 104.466 256.813 96.5091C256.558 94.5326 253.339 95.0725 253.522 97.0287C254.062 102.887 254.612 108.755 255.152 114.614C255.285 116.07 257.903 116.396 258.341 114.899C259.696 110.182 261.061 105.454 262.416 100.737C262.966 98.832 259.89 97.7317 259.329 99.6572L259.299 99.5655Z" fill="#E88213"/>
<path d="M40.415 39.8422L49.5029 35.6447L47.18 34.0961C46.7215 35.8383 46.263 37.5805 45.8046 39.3328C45.448 40.6981 44.8061 42.4097 46.1408 43.4794C47.3124 44.4168 48.7795 44.0092 49.9613 43.2451C51.5915 42.1855 53.1299 40.9935 54.7091 39.8728L52.1314 38.151C51.5507 39.9849 50.97 41.8086 50.3893 43.6424C49.9206 45.1197 51.5609 46.3423 52.9669 45.3643C54.2098 44.5084 55.4528 43.6526 56.6958 42.7968L54.0163 41.8799C54.3117 42.8987 54.3932 43.8156 54.2302 44.865C54.0468 46.0367 55.412 46.9129 56.5531 46.4136C58.9066 45.3846 60.6895 43.6017 61.5963 41.3399L58.5296 41.452C59.4568 42.9191 59.956 44.4168 60.0884 46.1284C60.1699 47.2287 61.9019 47.8807 62.7679 47.0453C64.4286 45.4559 65.4678 43.7138 66.0587 41.5844L62.7679 41.6965C62.9106 43.6832 63.4302 45.5884 64.2656 47.4019C64.7852 48.5226 66.3236 48.5022 67.1183 47.6362C68.1066 46.5563 69.0948 45.4763 70.0831 44.3964L67.1081 43.7647C67.6073 45.8329 68.1168 47.9113 68.616 49.9795C68.9012 51.141 70.2257 51.6198 71.2955 50.8965C72.2837 50.2342 73.272 49.5618 74.2603 48.8996L71.5808 47.9826C72.0494 50.815 71.9271 53.7084 71.1223 56.5102C70.7555 57.7633 71.8864 59.047 73.3331 58.4459C75.493 57.5494 77.3065 56.0823 78.468 54.1567L75.493 53.525C75.6764 55.9091 75.7375 58.3033 75.6764 60.6975C75.6357 62.2767 77.5103 62.9287 78.6616 61.7367C80.4547 59.8825 82.2478 58.018 84.0409 56.1638L81.1882 55.9294C82.2376 58.344 83.2768 60.7485 84.3262 63.1631C84.8356 64.3347 86.374 64.2023 87.1789 63.3974C89.3999 61.1662 91.621 58.935 93.8522 56.7037L90.8772 56.0721C91.1014 59.4444 91.3255 62.8167 91.5395 66.189C91.621 67.4014 93.2918 67.7885 94.219 67.1059C97.0717 65.0173 99.5067 62.4907 101.412 59.6176L98.7833 59.7195C100.25 61.6552 101.218 63.8151 101.687 66.1584C101.962 67.544 103.714 67.7885 104.662 66.7901C106.516 64.8339 108.686 63.1834 111.05 61.7979L108.37 60.8809C108.921 63.8763 109.461 66.8716 110.011 69.8567C110.235 71.0589 112.211 71.7008 112.986 70.4884C114.371 68.3183 115.767 66.1482 117.153 63.9781L114.178 63.3465C114.259 66.5761 114.636 69.7752 115.309 72.9336C115.553 74.095 117.519 74.8388 118.284 73.5652C120.056 70.6209 121.829 67.6663 123.602 64.7219L120.627 64.0902C121.442 68.1757 121.707 72.3121 121.381 76.4791C121.269 77.9869 123.327 78.8122 124.366 77.5183C126.77 74.5127 128.676 71.2118 130.02 67.6968L126.831 67.4116C127.412 69.7039 127.728 72.0472 127.697 74.4211C127.677 75.7659 129.725 76.9681 130.683 75.4603C131.763 73.7588 132.843 72.0472 133.922 70.3458C134.442 69.5307 134.951 68.7157 135.471 67.9006C135.756 67.4523 136.031 67.0142 136.317 66.5659C136.459 66.3418 137.142 65.6694 136.694 65.7101L135.461 65.4452L135.604 65.5675L134.941 64.1513L135.328 63.5604L137.356 63.4789L137.234 63.3974C135.522 62.2359 133.535 64.7524 135.247 65.9139L135.369 65.9954C136.001 66.4233 136.775 66.3112 137.397 65.9139C138.477 65.2313 138.517 63.6725 137.499 62.9695C136.072 61.9914 134.656 63.1835 133.912 64.3143C131.895 67.4014 129.959 70.5393 127.993 73.6467L130.978 74.686C131.009 72.0268 130.744 69.4288 130.102 66.8512C129.755 65.4656 127.514 65.0071 126.913 66.5659C125.66 69.8465 123.918 72.8826 121.676 75.6844L124.661 76.7236C124.998 72.2917 124.753 67.8598 123.897 63.5095C123.663 62.3378 121.676 61.6247 120.922 62.8778C119.15 65.8222 117.377 68.7768 115.604 71.7212L118.579 72.3528C117.907 69.1945 117.53 65.9954 117.448 62.7657C117.418 61.4616 115.186 61.0235 114.473 62.1341C113.088 64.3042 111.692 66.4742 110.306 68.6443L113.281 69.276C112.731 66.2807 112.191 63.2853 111.641 60.3002C111.417 59.047 110.011 58.7618 108.961 59.3832C106.333 60.9217 104.04 62.7963 101.982 64.9562L104.957 65.5879C104.377 62.6944 103.174 60.0659 101.361 57.6818C100.78 56.9177 99.2723 56.9584 98.7324 57.7837C96.9698 60.4428 94.7793 62.7454 92.1304 64.6913L94.8099 65.6082C94.5857 62.2359 94.3616 58.8636 94.1477 55.4913C94.0458 54.0039 92.0489 53.9835 91.1727 54.8597C88.9517 57.0909 86.7306 59.3221 84.4994 61.5533L87.3521 61.7877C86.3027 59.3731 85.2635 56.9686 84.2141 54.554C83.7149 53.3926 82.1561 53.4945 81.3614 54.3197C79.5683 56.174 77.7752 58.0384 75.9821 59.8927L78.9672 60.9319C79.0385 58.2625 78.9672 55.5932 78.7736 52.9239C78.6819 51.6708 76.5017 51.1206 75.7987 52.2922C74.8919 53.7899 73.6795 54.8699 71.9883 55.5728L74.1991 57.5086C75.167 54.1567 75.4217 50.7844 74.8614 47.3713C74.6678 46.1691 73.1905 45.7718 72.1819 46.4544C71.1732 47.137 70.2053 47.7891 69.2171 48.4513L71.8966 49.3682C71.3974 47.3 70.888 45.2216 70.3887 43.1534C70.0627 41.8188 68.3816 41.4724 67.4138 42.5217C66.4459 43.5711 65.4373 44.6816 64.449 45.7616L67.3017 45.9959C66.5681 44.4168 66.181 42.807 66.0485 41.0852C65.9059 39.1902 63.1755 39.6589 62.7578 41.1973C62.4114 42.4606 61.6676 43.6628 60.6895 44.6001L63.369 45.5171C63.2264 43.5711 62.6151 41.7169 61.5657 40.046C60.8933 38.9864 59.0492 38.803 58.4991 40.1581C57.8878 41.6863 56.7976 42.8172 55.2083 43.5202L57.5312 45.0688C57.7248 43.7749 57.6636 42.5014 57.3071 41.2584C56.981 40.1275 55.7279 39.5773 54.6276 40.3415C53.3846 41.1973 52.1416 42.0531 50.8987 42.9089L53.4763 44.6307C54.057 42.7968 54.6377 40.9731 55.2185 39.1393C55.6769 37.6823 54.0468 36.4088 52.6409 37.4174C51.6628 38.1102 50.6847 38.8132 49.7066 39.506C49.2584 39.8321 48.6063 40.1479 48.2395 40.5554C48.1071 40.6573 47.9645 40.749 47.8218 40.8407C48.4229 41.5029 48.7286 41.5437 48.749 40.9833C48.9935 40.7184 49.024 39.9237 49.1259 39.557L49.6251 37.6518C49.9206 36.5413 50.2059 35.4307 50.5013 34.3202C50.807 33.1486 49.238 32.2826 48.1784 32.7716L39.0905 36.9692C37.1649 37.8555 38.4894 40.6573 40.4354 39.7607L40.415 39.8422Z" fill="#FFEC5F"/>
<path d="M138.293 65.0072C137.152 68.7157 136.011 72.414 134.86 76.1225C134.381 77.6711 136.663 79.1994 137.733 77.5591C140.056 73.9932 142.379 70.4375 144.691 66.8716L141.706 65.8324C141.747 69.1538 141.778 72.4751 141.818 75.7965C141.829 77.1108 143.856 78.3843 144.803 76.8357C146.79 73.606 148.767 70.3662 150.723 67.1263L147.738 66.0871C146.943 71.5175 146.159 76.9478 145.364 82.3679C145.18 83.6007 146.994 84.7112 148.054 83.7026C152.241 79.719 155.532 75.0935 157.763 69.9485L154.574 69.2557C154.309 73.117 154.044 76.9783 153.779 80.8499C153.677 82.266 155.817 83.3154 156.764 81.8891C159.668 77.5285 162.348 73.0559 164.803 68.4712L161.614 68.1859C162.052 71.3239 162.032 74.4517 161.594 77.5998C161.38 79.1484 163.58 79.882 164.579 78.639C167.055 75.5622 169.53 72.4853 172.006 69.4085L169.031 68.7768C169.54 71.9963 170.05 75.2158 170.549 78.4353C170.732 79.6171 172.24 80.0756 173.229 79.3522C176.051 77.3146 177.885 74.523 178.7 71.3341L175.531 71.8333C176.377 74.2173 177.212 76.6014 178.058 78.9854C178.445 80.0654 180.258 80.1469 180.911 79.2197C182.887 76.4078 184.864 73.5857 186.84 70.7737L183.987 70.5394C185.23 73.9015 186.483 77.2636 187.726 80.6155C188.063 81.5121 189.54 81.7974 190.284 81.1453C192.637 79.0873 194.502 76.7236 195.918 74.0339L192.729 73.7487C193.809 77.2229 194.868 80.7174 195.908 84.2018C196.346 85.6791 198.312 85.9338 199.096 84.4871C201.756 79.5865 204.272 74.6147 206.636 69.5817L203.447 69.2964C204.364 73.3615 205.291 77.4164 206.208 81.4815C206.493 82.7347 208.296 83.2645 209.183 82.1132C211.108 79.6069 212.626 76.8663 213.666 73.9524L210.599 74.0645C211.628 75.878 212.657 77.6915 213.676 79.505C214.379 80.7582 216.04 80.5646 216.742 79.393C218.098 77.1108 219.453 74.8286 220.808 72.5465L217.741 72.6585C218.709 74.4109 219.687 76.1633 220.655 77.9055C221.449 79.3318 222.254 80.9721 224.241 81.0638C226.228 81.1555 227.399 79.4031 228.418 78.0583C229.692 76.367 230.955 74.6758 232.229 72.9846L229.6 73.0864C231.149 74.7267 232.697 76.3569 234.246 77.9972C234.928 78.7103 236.243 78.7511 236.874 77.8953C238.922 75.1445 240.298 72.1084 241.001 68.8481L237.832 69.3474C238.79 71.4156 239.584 73.6977 240.797 75.6437C241.653 77.0089 243.201 78.3537 245.056 77.8749C247.195 77.3145 247.399 75.1343 247.745 73.4328C248.255 70.9571 248.764 68.4814 249.273 66.0056L246.105 66.5049C247.562 69.7549 249.447 72.8012 251.719 75.6131C252.422 76.4791 254.205 76.2754 254.561 75.1648C255.774 71.3443 256.67 67.4625 257.18 63.5197L254.011 64.0189C255.611 66.6271 257.21 69.2353 258.81 71.8435C259.431 72.8623 261.418 73.1374 261.876 71.7314C263.16 67.7172 263.985 63.6216 264.26 59.4648L261.092 59.964C262.732 64.0087 265.035 67.758 267.908 71.1405C268.621 71.9759 270.394 71.8333 270.75 70.6922C271.8 67.2893 272.849 63.8967 273.898 60.4938L271.056 60.9421C272.951 63.6929 275.029 66.3215 277.291 68.8074C278.106 69.7039 279.624 69.4289 280.134 68.3591C281.336 65.8019 282.13 63.1326 282.507 60.3817L279.563 61.2274C280.612 62.3582 281.835 63.1937 283.282 63.8457C284.127 64.2227 285.075 63.642 285.442 62.939C286.817 60.3614 287.693 57.6105 288.091 54.7782L285.146 55.6238L290.658 61.3496C291.31 62.022 292.706 62.1443 293.287 61.2477C295.762 57.4577 297.301 53.3009 297.729 48.92L294.784 49.7656C296.139 51.0493 297.484 52.333 298.839 53.6269C299.675 54.4216 301.182 54.3299 301.682 53.1787C302.588 51.0595 303.342 48.9098 303.974 46.7193L301.131 47.1676C302.599 48.5838 303.994 50.1935 305.614 51.467C306.949 52.5164 308.936 52.6081 309.995 51.0901C311.055 49.572 311.32 47.2186 311.727 45.4764C312.206 43.4387 312.563 41.3807 312.817 39.3125C313.072 37.336 309.771 37.0303 309.516 39.0068C309.16 41.7984 308.63 44.5798 307.876 47.3204C307.774 47.7076 307.214 48.8079 307.326 49.1543C307.193 49.3785 307.275 49.409 307.57 49.246C307.947 49.2256 307.968 49.1441 307.642 48.9811C307.54 48.7468 307.112 48.4717 306.929 48.2883C305.859 47.2491 304.789 46.2201 303.719 45.1809C302.965 44.4575 301.233 44.4066 300.877 45.6292C300.255 47.8197 299.491 49.9694 298.584 52.0885L301.427 51.6402C300.072 50.3565 298.727 49.0728 297.372 47.7789C296.445 46.8925 294.56 47.1982 294.428 48.6245C294.051 52.4553 292.787 56.1536 290.617 59.475L293.246 59.3731L287.734 53.6473C286.807 52.6794 284.973 53.1277 284.79 54.4929C284.433 57.0808 283.608 59.5259 282.365 61.8692L284.525 60.9625C283.598 60.5447 282.833 59.964 282.161 59.2508C281.244 58.2626 279.4 58.7516 279.217 60.0965C278.87 62.5926 278.147 64.9766 277.057 67.2995L279.899 66.8513C277.637 64.3551 275.559 61.7368 273.664 58.9859C273.022 58.0588 271.148 58.3747 270.822 59.4342C269.772 62.8371 268.723 66.2298 267.673 69.6326L270.516 69.1844C267.816 66.0056 265.697 62.4907 264.148 58.6803C263.578 57.2845 261.082 57.6819 260.98 59.1795C260.725 63.0714 260.012 66.9124 258.81 70.6718L261.876 70.5598C260.277 67.9516 258.677 65.3434 257.078 62.7352C256.314 61.4922 254.113 61.6145 253.909 63.2344C253.43 66.9124 252.636 70.5394 251.505 74.1053L254.347 73.657C252.238 71.0488 250.527 68.247 249.182 65.2313C248.52 63.754 246.299 64.3042 246.013 65.7305C245.687 67.2995 245.371 68.8685 245.045 70.4375C244.893 71.1812 244.74 71.925 244.587 72.6687C244.505 73.0762 243.935 74.5026 244.128 74.8898L244.567 74.9611L244.353 74.8388C244.271 74.6452 243.914 74.3905 243.782 74.197C243.415 73.657 243.191 73.0253 242.926 72.4344C242.254 70.9775 241.581 69.5308 240.909 68.0738C240.237 66.6169 238.046 67.1467 237.74 68.5731C237.149 71.2933 235.957 73.8506 234.246 76.1429L236.874 76.041C235.326 74.4007 233.777 72.7706 232.229 71.1303C231.546 70.4069 230.232 70.3866 229.6 71.2322C228.734 72.3835 227.868 73.5347 227.012 74.686C226.605 75.226 226.197 75.7659 225.79 76.3059C225.484 76.7236 224.924 77.8036 224.414 77.9972C224.699 77.8851 224.567 78.1704 224.404 77.7832C224.302 77.5387 224.129 77.2942 223.996 77.0598C223.67 76.4791 223.344 75.8882 223.029 75.3075C222.295 73.9932 221.572 72.6789 220.838 71.3646C220.105 70.0503 218.464 70.3152 217.771 71.4767C216.416 73.7589 215.061 76.041 213.706 78.3232L216.773 78.2111C215.744 76.3976 214.715 74.5841 213.696 72.7706C213.085 71.6907 211.119 71.5276 210.63 72.8827C209.672 75.552 208.337 78.0379 206.564 80.3405L209.539 80.9721C208.622 76.907 207.695 72.8521 206.778 68.787C206.442 67.3097 204.272 67.055 203.589 68.5017C201.226 73.5347 198.709 78.4964 196.05 83.4071L199.239 83.6924C198.2 80.1978 197.14 76.7134 196.06 73.2393C195.612 71.7925 193.656 71.4767 192.871 72.954C191.72 75.1445 190.161 77.1108 188.246 78.7817L190.803 79.3114C189.56 75.9493 188.307 72.5872 187.064 69.2353C186.667 68.1655 184.864 68.0636 184.212 69.001C182.235 71.8129 180.258 74.635 178.282 77.447L181.135 77.6813C180.289 75.2973 179.454 72.9132 178.608 70.5292C178.037 68.9296 175.776 69.7345 175.439 71.0284C174.818 73.4226 173.28 75.4807 171.191 76.9885L173.87 77.9055C173.361 74.686 172.852 71.4665 172.352 68.247C172.138 66.9226 170.243 66.5354 169.377 67.6154C166.902 70.6922 164.426 73.7691 161.95 76.8459L164.935 77.8851C165.414 74.472 165.414 71.0386 164.946 67.6459C164.721 66.0362 162.46 66.0566 161.757 67.3607C159.424 71.711 156.887 75.9493 154.136 80.0858L157.121 81.1249C157.386 77.2636 157.651 73.4023 157.916 69.5308C158.028 67.8293 155.46 67.1365 154.727 68.838C152.73 73.4634 149.796 77.7221 146.026 81.3185L148.716 82.6532C149.51 77.2229 150.295 71.7925 151.09 66.3724C151.293 64.9461 148.96 63.917 148.104 65.3332C146.148 68.5832 144.172 71.8129 142.185 75.0426L145.17 76.0818C145.13 72.7604 145.099 69.4391 145.058 66.1177C145.038 64.783 143.061 63.5706 142.073 65.0785C139.75 68.6444 137.427 72.2001 135.114 75.7659L137.988 77.2025L141.421 66.0871C142.012 64.1819 138.925 63.0816 138.334 65.0072H138.293Z" fill="#FFEC5F"/>
<path d="M133.199 101.145C135.043 98.9646 136.857 96.7537 138.629 94.5225L135.654 93.8908C136.103 96.713 135.736 99.4943 134.564 102.174C133.8 103.926 136.215 104.843 137.437 103.61C138.803 102.225 140.178 100.849 141.543 99.4638L138.691 99.2294C139.159 100.106 138.833 101.084 138.792 102.031C138.762 102.806 138.843 103.559 139.2 104.273C139.801 105.495 141.105 106.575 142.664 106.351C144.518 106.096 145.242 104.497 145.996 103.111C147.065 101.135 148.135 99.1581 149.195 97.1816L146.128 97.2937C147.422 99.5555 148.308 101.919 148.767 104.456C148.981 105.638 150.427 106.086 151.446 105.373C153.606 103.875 155.552 102.164 157.315 100.269L154.34 99.637C154.89 101.583 155.43 103.539 156 105.485C156.449 106.983 157.284 108.368 159.179 108.378C160.687 108.378 162.052 107.441 162.857 106.29C163.662 105.139 163.591 103.325 164.681 102.378L162.123 101.848C162.888 104.222 163.234 106.687 163.295 109.173C163.326 110.62 165.455 110.732 166.27 109.805C168.196 107.625 170.131 105.454 172.057 103.274L169.082 102.643C169.744 105.475 170.162 108.338 170.335 111.241C170.417 112.698 172.454 112.79 173.31 111.873C175.745 109.275 177.752 106.412 179.392 103.335L176.204 103.05C176.927 105.933 177.324 108.868 177.375 111.842C177.406 113.218 179.586 113.503 180.35 112.474C183.121 108.755 185.454 104.782 187.299 100.615L184.11 100.33C185.088 103.926 186.076 107.523 187.054 111.119C187.329 112.138 188.735 112.943 189.734 112.036C192.545 109.499 195.052 106.718 197.201 103.672L194.227 103.04C195.052 106.259 196.162 109.397 197.609 112.413C198.067 113.371 199.83 113.707 200.462 112.647C202.357 109.499 203.732 106.219 204.578 102.714L201.409 103.213C202.387 105.108 203.304 107.034 204.333 108.898C205.087 110.263 206.3 111.751 208.195 111.496C210.09 111.241 211.119 109.469 212.015 108.073C213.126 106.341 214.053 104.527 214.786 102.622C215.52 100.717 212.423 99.6472 211.699 101.542C211.241 102.744 210.711 103.916 210.079 105.057C209.56 106.005 208.775 107.716 207.828 108.378C207.665 108.491 207.96 108.511 207.828 108.256C207.726 108.073 207.573 107.91 207.461 107.726C207.094 107.115 206.799 106.463 206.483 105.831C205.811 104.517 205.128 103.213 204.456 101.899C203.712 100.452 201.633 100.951 201.287 102.398C200.574 105.342 199.392 108.205 197.803 110.854L200.655 111.089C199.331 108.317 198.281 105.465 197.528 102.5C197.222 101.308 195.408 100.646 194.553 101.868C192.566 104.69 190.284 107.299 187.676 109.652L190.355 110.569C189.377 106.972 188.389 103.376 187.411 99.7796C187.023 98.3736 184.904 97.9763 184.222 99.4943C182.48 103.427 180.309 107.146 177.691 110.65L180.666 111.282C180.615 108.307 180.218 105.373 179.494 102.49C179.117 100.982 177.059 100.788 176.305 102.204C174.798 105.037 172.882 107.645 170.641 110.039L173.616 110.671C173.453 107.767 173.035 104.904 172.363 102.072C172.047 100.747 170.335 100.371 169.388 101.44C167.462 103.621 165.526 105.791 163.601 107.971L166.576 108.603C166.515 105.821 166.005 103.142 165.16 100.493C164.864 99.5657 163.326 99.3415 162.602 99.963C161.828 100.635 161.288 101.4 160.931 102.327C160.605 103.162 160.514 104.344 159.76 104.965C159.658 105.047 159.475 105.23 159.322 105.23C159.169 105.23 159.454 105.332 159.352 105.067C159.118 104.466 158.985 103.824 158.812 103.203C158.415 101.817 158.028 100.442 157.63 99.0562C157.233 97.6706 155.654 97.3548 154.655 98.4246C153.076 100.116 151.304 101.613 149.378 102.948L152.057 103.865C151.548 101.074 150.601 98.394 149.174 95.9081C148.481 94.6957 146.77 94.8078 146.108 96.0202C145.445 97.2326 144.793 98.4551 144.131 99.6675C143.51 100.809 142.705 101.98 142.226 103.172C142.175 103.295 142.46 103.305 142.409 103.152C142.379 103.03 142.236 102.907 142.185 102.785C142.002 102.337 142.114 101.848 142.165 101.379C142.297 100.146 142.328 98.9747 141.727 97.8438C141.126 96.713 139.73 96.7435 138.874 97.6095C137.509 98.9951 136.133 100.371 134.768 101.756L137.641 103.193C139.027 100.024 139.465 96.6518 138.935 93.3101C138.721 91.9856 136.816 91.5985 135.96 92.6784C134.187 94.9096 132.374 97.1205 130.53 99.3008C129.185 100.88 131.864 102.663 133.199 101.084V101.145Z" fill="#FFEC5F"/>
<path d="M236.762 106.239L239.829 99.4536L236.64 99.1684C237.119 100.839 237.659 102.5 238.28 104.13C238.596 104.945 238.932 105.76 239.289 106.555C239.523 107.085 239.717 107.553 240.277 107.849C240.726 108.083 241.255 108.154 241.765 108.063C242.753 107.889 243.364 107.166 243.813 106.392C243.976 106.107 244.139 105.821 244.261 105.526C244.373 105.271 244.24 105.567 244.312 105.424C244.353 105.363 244.393 105.302 244.444 105.251C244.332 105.342 244.322 105.353 244.414 105.281C244.505 105.2 244.607 105.128 244.709 105.057C244.444 105.241 244.801 105.016 244.872 104.986C244.964 104.945 245.32 104.853 245.035 104.915C245.188 104.884 245.351 104.864 245.504 104.833C245.901 104.762 245.29 104.792 245.697 104.823C245.86 104.833 246.013 104.843 246.176 104.864C246.462 104.894 246.146 104.843 246.298 104.894C246.472 104.955 246.635 105.016 246.808 105.088C247.613 105.444 248.652 104.915 248.968 104.181C249.324 103.346 248.846 102.551 248.051 102.194C246.614 101.552 244.699 101.573 243.262 102.317C242.417 102.755 241.765 103.366 241.316 104.171C241.164 104.446 241.041 104.741 240.889 105.016C240.736 105.291 240.95 105.006 240.756 105.21C240.634 105.363 240.634 105.363 240.756 105.22C241.041 105.027 241.357 104.965 241.693 105.037L242.59 105.821C241.52 103.488 240.603 101.084 239.91 98.6182C239.727 97.956 239.248 97.416 238.474 97.3447C237.74 97.2733 237.017 97.7013 236.732 98.3431L233.665 105.128C232.83 106.983 235.917 108.063 236.752 106.208L236.762 106.239Z" fill="#FFEC5F"/>
<path d="M3.58458 10.9176C5.44903 8.27889 8.30173 6.52651 11.6435 6.02729L9.86052 3.96927C9.04547 6.11898 7.80251 8.07512 6.06032 9.69505C4.56265 11.0908 6.41691 13.3526 8.13872 12.0587C11.2156 9.7358 14.2109 7.32119 17.1145 4.81489L14.7407 2.74668C12.754 4.76395 10.9099 6.89329 9.20848 9.12451C8.1489 10.5101 10.2069 12.507 11.5823 11.1927C14.16 8.71698 16.7376 6.25143 19.3254 3.77569L16.7478 2.05388C16.3199 3.54136 15.8919 5.02884 15.464 6.52651C15.1278 7.67778 16.2587 9.20601 17.6749 8.46227C18.979 7.77966 19.9163 6.86272 20.4665 5.55863C21.1898 3.82663 18.816 2.83838 17.5934 4.12209C15.352 6.47557 13.1106 8.82905 10.8692 11.1927C9.50394 12.6293 11.7759 14.1575 13.243 13.2609C16.0753 11.5289 18.9077 9.79693 21.74 8.06493L19.1624 6.34312C18.2862 8.50303 17.2674 10.612 16.0957 12.6496C15.4233 13.8213 17.084 15.2476 18.3066 14.5854C21.037 13.1081 23.1154 11.0705 24.5621 8.46227L21.4751 7.38232C20.6193 9.1347 19.8857 10.9278 19.2744 12.7617C18.9077 13.8824 20.1201 15.5023 21.4853 14.6975C23.4109 13.5768 25.041 12.2217 26.3553 10.4795L23.3803 9.84787C23.5739 11.3965 23.5025 12.9043 23.1765 14.4428C22.9116 15.7367 24.8168 16.7045 25.8662 15.7774C26.9665 14.7993 27.4556 17.54 27.5167 18.0392C27.7205 19.5471 27.9752 20.8817 28.8717 22.1756C30.0128 23.8261 32.6006 21.8292 31.4697 20.1889C30.8686 19.3229 30.9094 18.1309 30.7566 17.1426C30.5732 16.0219 30.2471 14.8605 29.4728 13.9741C28.1382 12.4357 25.4587 11.9466 23.7878 13.4239L26.4775 14.7586C26.8443 12.9553 26.8952 11.1418 26.6711 9.33846C26.5081 8.02418 24.5214 7.61665 23.6961 8.70679C22.7384 9.97013 21.577 11.0806 20.1608 11.9059L22.3717 13.8417C22.983 12.0078 23.7165 10.2146 24.5723 8.46227C25.4791 6.60802 22.4532 5.62995 21.4853 7.38232C20.5174 9.1347 18.8873 10.7546 16.9719 11.7938L19.1827 13.7296C20.3544 11.6818 21.3732 9.58298 22.2494 7.42308C22.8811 5.86428 21.0166 4.87602 19.6718 5.70127C16.8395 7.43326 14.0071 9.16526 11.1748 10.8973L13.5487 12.9655C15.7901 10.612 18.0315 8.25851 20.2729 5.89484L17.3998 4.4583C17.1859 4.9779 16.8904 5.37524 16.3606 5.65032L18.5715 7.58609C18.9994 6.09861 19.4273 4.61113 19.8552 3.11346C20.0487 2.43085 19.9469 1.73805 19.305 1.31014C18.765 0.943368 17.787 0.902615 17.2775 1.39165C14.6999 3.86739 12.1223 6.33294 9.5345 8.80867L11.9084 10.8769C13.62 8.64566 15.464 6.52651 17.4406 4.49906C18.7243 3.19496 16.4625 1.22864 15.0667 2.43085C12.1631 4.93715 9.16773 7.35176 6.09088 9.67467L8.16928 12.0383C10.3292 10.0313 11.9695 7.69816 12.9781 5.02884C13.3958 3.91833 12.4789 2.77725 11.1952 2.97082C6.99764 3.61268 3.24837 5.8439 0.91527 9.1347C-0.266564 10.8056 2.39256 12.5987 3.58458 10.9176Z" fill="#894909"/>
<path d="M330.789 18.3143C329.353 18.7524 328.263 19.7916 327.611 21.0244C327.285 21.6357 327.611 22.4507 328.161 22.8277C328.772 23.2352 329.587 23.1639 330.188 22.7462C330.902 22.247 331.38 21.921 332.226 21.6357C331.992 21.7172 332.46 21.5847 332.481 21.5746C332.593 21.5542 332.705 21.5338 332.817 21.5338C332.654 21.5338 332.674 21.5338 332.878 21.544C333.163 21.5644 332.837 21.4727 333.123 21.5949C333.347 21.6866 333.204 21.6153 333.408 21.7274C333.938 21.9923 334.467 22.2266 335.079 22.2674C335.282 22.3081 335.323 22.3081 335.221 22.2674C335.364 22.3183 335.374 22.3183 335.252 22.2674C335.14 22.2062 335.14 22.2164 335.252 22.2877C335.079 22.1349 335.058 22.1145 335.17 22.2368C334.926 22.0432 335.068 22.1145 335.15 22.2674C334.956 21.9108 335.15 22.2775 335.17 22.4202C335.211 22.6851 335.232 22.9602 335.252 23.2352C335.354 24.6921 335.721 26.577 337.524 26.9641C338.828 27.2494 339.724 26.4241 340.366 25.4665C340.917 24.6514 341.456 23.8363 342.007 23.0111C342.485 22.2979 342.424 21.3708 341.66 20.8614C340.978 20.4131 339.816 20.515 339.337 21.2282C338.787 22.0432 338.247 22.8583 337.697 23.6835C337.595 23.8363 337.432 23.9993 337.371 24.1624C337.106 24.4374 337.31 24.4476 337.972 24.1929C338.319 23.979 338.583 23.979 338.787 24.1929C338.675 24.0503 338.685 24.0707 338.808 24.2337C338.777 24.1827 338.746 24.1216 338.726 24.0707C338.695 24.0197 338.675 23.9586 338.655 23.8975C338.716 24.1012 338.726 24.1114 338.675 23.928C338.512 22.7156 338.614 21.3097 337.789 20.2806C337.208 19.5471 336.403 19.323 335.476 19.1803C335.191 19.1396 335.089 19.0173 334.681 18.8339C334.243 18.6302 333.754 18.4977 333.265 18.457C331.34 18.2939 329.577 19.3331 328.079 20.3723L330.657 22.0942C330.759 21.9006 330.952 21.6866 331.166 21.5236C331.238 21.4727 331.299 21.4217 331.37 21.3708C331.248 21.4319 331.268 21.4217 331.452 21.33C331.666 21.2282 331.869 21.1568 332.094 21.0855C332.949 20.8206 333.275 19.7203 332.949 19.0377C332.552 18.2124 331.625 18.0392 330.759 18.2939L330.789 18.3143Z" fill="#894909"/>
</g>
<defs>
<clipPath id="clip0_2005_305">
<rect width="343.435" height="135.177" fill="white" transform="translate(0.619812 0.963867)"/>
</clipPath>
</defs>
</svg>
