<svg width="570" height="140" viewBox="0 0 570 140" fill="none" xmlns="http://www.w3.org/2000/svg">
<g clip-path="url(#clip0_2005_1622)">
<path d="M547.068 101.533L547.166 102.054C548.796 105.24 550.466 108.516 550.857 112.069C551.256 115.63 550.107 119.59 547.125 121.57C545.324 122.768 543.108 123.119 540.973 123.428C521.008 126.395 500.832 129.369 480.713 127.764C469.989 126.908 459.387 124.757 448.656 123.974C425.961 122.32 346.69 126.81 323.955 125.979C314.902 125.645 143.159 124.471 134.122 123.909C101.217 121.872 68.3778 127.975 35.4242 129.108C31.5373 129.238 27.5118 129.279 23.9345 127.747C20.3653 126.215 17.3503 122.679 17.6681 118.8C17.8637 116.42 19.2326 114.31 19.7786 111.988C21.3921 105.118 15.6309 98.6317 15.2479 91.5831C17.0732 91.4282 18.9067 91.3142 20.7402 91.2408L20.6994 90.4259C21.9462 89.2688 22.4677 87.3865 21.9951 85.7567C21.6854 84.6729 20.9928 83.744 20.4305 82.7661C18.923 80.1178 18.3607 76.9479 18.8741 73.941C19.4364 70.6734 21.1721 67.1938 19.6401 64.2603C19.3875 63.7795 19.0534 63.2661 19.1023 62.7528C20.6016 62.6061 22.101 62.5083 23.6085 62.4839C22.924 62.3453 22.2477 62.1742 21.5795 61.9949C20.6994 61.7586 19.4934 61.6445 19.1593 62.4839C19.1267 62.5735 19.1023 62.6631 19.1023 62.7528C17.2606 62.932 15.4272 63.1928 13.6182 63.5432C12.1025 54.5062 12.2247 45.2004 13.9523 36.196C25.0997 36.4649 36.2391 36.7338 47.3866 37.0027C51.5669 37.1005 55.8042 37.1983 59.8786 36.2693C60.5794 36.1064 61.2639 35.9189 61.9565 35.7234C66.8539 34.9981 71.7758 34.8759 76.7139 35.0796C86.8347 35.4871 97.0125 37.2961 107.133 38.2984C135.173 41.069 326.139 37.6139 354.203 35.0959C400.39 30.9482 503.301 29.3185 549.667 29.2044C551.786 29.1962 554.166 29.3022 555.608 30.8504C556.838 32.1705 556.993 34.1344 557.034 35.9434C557.262 44.5485 556.537 53.1861 554.874 61.6364C553.131 61.4897 551.379 61.3349 549.635 61.1882L549.61 61.4897C549.594 64.4559 549.578 67.4139 549.553 70.38C549.553 71.4801 549.61 72.7269 550.45 73.4358C551.338 74.1855 552.731 74.0062 553.66 74.6988C554.728 75.4893 554.76 77.0538 554.679 78.3821C554.255 85.2596 553.652 92.129 552.878 98.974C552.829 99.4548 552.756 99.9763 552.405 100.319C552.104 100.612 551.664 100.702 551.248 100.775L547.068 101.533Z" fill="#D4C099"/>
<path d="M547.068 86.4004L547.166 86.9219C548.796 90.108 550.466 93.3838 550.857 96.9367C551.256 100.498 550.107 104.458 547.125 106.438C545.324 107.636 543.108 107.986 540.973 108.296C521.008 111.262 500.832 114.236 480.713 112.631C469.989 111.776 459.387 109.624 448.656 108.842C425.961 107.188 346.69 111.678 323.955 110.847C314.902 110.513 143.159 109.339 134.122 108.777C101.217 106.74 68.3778 112.843 35.4242 113.976C31.5373 114.106 27.5118 114.147 23.9345 112.615C20.3653 111.083 17.3503 107.546 17.6681 103.668C17.8637 101.288 19.2326 99.1776 19.7786 96.8552C21.3921 89.9858 15.6309 83.4994 15.2479 76.4507C17.0732 76.2959 18.9067 76.1818 20.7402 76.1085L20.6994 75.2936C21.9462 74.1365 22.4677 72.2541 21.9951 70.6244C21.6854 69.5406 20.9928 68.6116 20.4305 67.6338C18.923 64.9854 18.3607 61.8156 18.8741 58.8087C19.4364 55.541 21.1721 52.0615 19.6401 49.128C19.3875 48.6472 19.0534 48.1338 19.1023 47.6205C20.6016 47.4738 22.101 47.376 23.6085 47.3515C22.924 47.213 22.2477 47.0419 21.5795 46.8626C20.6994 46.6263 19.4934 46.5122 19.1593 47.3515C19.1267 47.4412 19.1023 47.5308 19.1023 47.6205C17.2606 47.7997 15.4272 48.0605 13.6182 48.4109C12.1025 39.3739 12.2247 30.068 13.9523 21.0637C25.0997 21.3326 36.2391 21.6015 47.3866 21.8704C51.5669 21.9682 55.8042 22.066 59.8786 21.137C60.5794 20.974 61.2639 20.7866 61.9565 20.591C66.8539 19.8658 71.7758 19.7436 76.7139 19.9473C86.8347 20.3547 97.0125 22.1638 107.133 23.1661C135.173 25.9366 326.139 22.4816 354.203 19.9636C400.39 15.8159 503.301 14.1861 549.667 14.072C551.786 14.0639 554.166 14.1698 555.608 15.7181C556.838 17.0382 556.993 19.002 557.034 20.8111C557.262 29.4161 556.537 38.0538 554.874 46.5041C553.131 46.3574 551.379 46.2026 549.635 46.0559L549.61 46.3574C549.594 49.3235 549.578 52.2815 549.553 55.2477C549.553 56.3478 549.61 57.5945 550.45 58.3035C551.338 59.0531 552.731 58.8739 553.66 59.5665C554.728 60.3569 554.76 61.9215 554.679 63.2498C554.255 70.1273 553.652 76.9967 552.878 83.8417C552.829 84.3224 552.756 84.8439 552.405 85.1862C552.104 85.4796 551.664 85.5692 551.248 85.6425L547.068 86.4004Z" fill="#602832"/>
<path d="M553.66 59.5665C553.041 59.102 552.21 59.0287 551.468 58.8005C549.879 65.1566 547.361 75.3832 547.361 76.2389C547.361 77.4856 539.71 88.9998 539.71 88.9998L547.5 87.5656C547.394 87.3538 547.28 87.1337 547.174 86.9219L547.076 86.4004C548.47 86.1477 549.863 85.8951 551.256 85.6425C551.672 85.5692 552.112 85.4795 552.414 85.1862C552.764 84.8439 552.837 84.3224 552.886 83.8416C553.66 76.9967 554.263 70.1273 554.687 63.2498C554.769 61.9215 554.736 60.3569 553.669 59.5665H553.66Z" fill="#A85668"/>
<path d="M18.5155 84.2328L17.4236 84.5832C18.0999 86.3107 18.7926 88.0301 19.2978 89.7495C18.7437 86.6204 18.5155 84.2328 18.5155 84.2328Z" fill="#A85668"/>
<path d="M23.9344 112.615C27.5117 114.147 31.5371 114.106 35.4241 113.976C68.3776 112.843 101.217 106.74 134.122 108.777C143.159 109.339 314.902 110.512 323.955 110.847C346.69 111.678 425.961 107.188 448.655 108.842C459.387 109.624 469.989 111.776 480.713 112.631C500.832 114.236 521.008 111.262 540.973 108.296C543.108 107.986 545.324 107.636 547.125 106.438C550.107 104.458 551.256 100.498 550.857 96.9367C550.833 96.7003 550.784 96.464 550.751 96.2277C537.078 99.9843 507.53 107.188 497.426 102.453C484.111 96.2114 456.234 98.7049 448.321 98.7049C440.409 98.7049 139.59 104.116 132.101 101.076C124.612 98.0449 116.708 95.3721 91.7401 98.2812C66.7723 101.19 30.5756 107.017 25.3604 104.14C22.7691 102.706 21.066 97.7841 20.0067 93.1882C20.1207 94.4024 20.0718 95.6166 19.7866 96.847C19.2407 99.1694 17.8717 101.28 17.6761 103.659C17.3583 107.538 20.3734 111.075 23.9425 112.607L23.9344 112.615Z" fill="#A85668"/>
<path d="M541.584 11.106C520.063 10.6741 498.404 11.6438 476.899 12.5483C455.321 13.4528 377.256 15.1477 355.817 17.7961C345.134 19.1162 334.744 20.0696 323.98 19.9718C313.362 19.874 140.013 20.8763 129.396 20.9904C117.776 21.1126 106.31 20.3548 94.739 19.3036C89.8334 18.8554 84.9034 18.505 79.9734 18.4072C77.7651 17.9102 75.5894 17.3642 73.3485 16.8671C67.571 15.6041 63.1381 17.519 57.5155 18.3991C50.589 19.4829 43.2389 18.6517 36.2554 18.6028C28.8237 18.5539 21.3921 18.5539 13.9685 18.3828C12.8848 18.3583 11.5973 19.2221 11.3935 20.3466C9.64156 29.9459 9.55192 39.4881 11.0757 49.1117C11.3039 50.5622 13.0559 51.2386 14.3189 50.9533C15.525 50.6763 16.731 50.44 17.937 50.2281C18.0185 50.5296 18.0837 50.8963 18.0755 51.4178C18.0592 52.6401 17.554 53.895 17.1873 55.0359C16.511 57.122 15.9324 59.1917 15.9242 61.4082C15.9242 63.4128 16.3806 65.3685 17.1547 67.2101C17.8962 68.9702 20.5853 71.8467 19.1023 73.6965C19.0208 73.7943 18.9637 73.9002 18.8985 74.0062C17.6844 74.0388 16.4621 74.0958 15.2479 74.1691C14.0989 74.2425 12.8603 75.1551 12.9663 76.4508C13.3981 81.6008 15.8183 85.993 17.0814 90.9311C18.4667 96.3093 14.6286 100.286 15.2561 105.485C16.7473 117.798 31.8877 117.455 40.998 116.975C67.8399 115.549 94.4782 111.344 121.377 110.944C134.741 110.741 310.624 112.403 323.939 113.014C337.555 113.642 407.317 113.136 420.917 112.289C434.192 111.458 447.246 111.572 460.439 113.365C473.583 115.149 486.482 116.657 499.773 116.054C514.114 115.402 528.872 113.479 542.928 110.561C547.858 109.543 551.77 106.699 552.691 101.533C553.481 97.1323 551.754 92.952 549.725 89.0895C550.735 88.8206 551.729 88.5028 552.674 88.0872C557.099 86.1478 556.032 79.1154 556.235 75.1388C556.398 71.969 556.472 68.7991 556.537 65.6292C556.578 63.6328 556.936 61.4163 556.056 59.5421C555.258 57.839 553.62 57.4968 552.577 56.0952C551.582 54.7507 551.371 51.3526 551.248 48.7206C552.185 48.9488 553.123 49.1851 554.06 49.4377C555.73 49.8859 557.246 48.8754 557.792 47.319C560.734 38.9747 560.277 27.8109 558.973 19.1732C557.596 10.0548 548.787 11.2608 541.568 11.1141L541.584 11.106ZM554.818 22.3268C554.687 24.861 554.467 27.4035 554.166 29.9214C553.628 34.4766 552.52 39.0969 552.047 43.6847C545.724 44.1084 539.596 44.0595 533.199 43.6602C531.928 43.5787 531.977 45.4774 533.199 45.6078C538.202 46.1537 543.034 46.9116 547.867 47.9465C547.321 51.4341 546.221 55.5411 547.736 58.6621C548.437 60.0962 549.488 60.4629 550.825 61.0985C552.21 61.7667 552.446 61.669 552.731 63.2417C552.943 64.4232 552.438 66.0367 552.291 67.2101C551.949 70.0051 551.591 72.792 551.224 75.587C551.02 77.1108 550.857 82.5786 550.01 83.0268C548.706 83.7113 545.487 83.4506 543.947 83.8743C541.731 84.4936 539.465 85.4796 537.477 86.6204C536.385 87.2479 536.467 89.2932 537.852 89.5214C540.777 89.994 543.963 90.0918 547.035 89.6436C548.893 94.0032 550.499 99.6095 547.019 103.374C544.949 105.615 541.502 105.648 538.683 106.023C535.228 106.479 531.773 106.952 528.318 107.375C516.763 108.809 505.061 109.901 493.409 109.926C481.405 109.95 469.679 108.027 457.807 106.552C446.301 105.126 434.843 105.077 423.28 105.762C411.106 106.487 342.437 107.726 330.27 108.565C318.601 109.38 144.104 107.204 132.5 106.324C108.592 104.515 84.6916 107.172 60.8891 109.144C53.9952 109.714 47.0932 110.219 40.1831 110.529C34.7071 110.773 26.208 112.444 21.9217 108.06C18.9067 104.98 20.7891 102.022 21.8076 98.648C22.4677 96.456 22.6144 94.3129 22.2966 92.0475C21.6202 87.2886 18.9474 83.1328 17.8718 78.4961C30.372 77.5264 42.7255 77.7709 55.1116 80.0607C56.2035 80.2644 56.6925 78.651 55.5761 78.3657C45.3168 75.7663 34.7397 74.1365 24.1463 73.9654C24.8227 72.2786 24.8716 70.437 24.073 68.5139C23.1929 66.3871 21.9217 64.6758 21.5876 62.3209C21.2046 59.6318 21.9788 57.1138 22.3047 54.4655C22.5084 52.8194 22.5492 51.2874 21.9625 49.7147C21.9543 49.6903 21.9462 49.6577 21.938 49.6332C22.6633 49.5599 23.3885 49.511 24.1219 49.4621C28.4244 50.2933 33.3626 50.5133 37.5347 49.1199C38.8956 48.6635 38.5615 46.8627 37.2088 46.716C34.5849 46.4389 31.961 46.5693 29.3289 46.2434C28.1637 46.0967 26.9903 45.8604 25.8168 45.6159C25.499 45.3796 25.0834 45.2248 24.5701 45.2166C24.3012 45.2166 24.0323 45.2166 23.7633 45.2166C23.0218 45.0862 22.2884 44.9803 21.555 44.9233C20.5283 44.8418 19.6564 44.964 18.98 45.2981C17.937 45.347 16.8858 45.4203 15.8428 45.5181C14.9301 38.282 15.0442 30.9889 16.1769 23.7854C22.3292 23.9647 28.4815 24.2499 34.6256 24.5106C41.6743 24.804 48.9511 25.4966 55.9917 24.861C61.9402 24.3232 67.1962 22.1149 73.2507 22.1068C78.6696 22.0986 84.2271 22.9053 89.6867 22.9868C99.4815 24.4455 109.26 26.393 119.022 26.996C128.776 27.599 138.718 27.705 148.472 26.8901C158.65 26.0426 331.314 23.8343 341.459 22.7994C361.154 20.7948 437.704 20.4363 457.489 19.5888C477.959 18.7087 498.42 17.8124 518.914 17.4294C524.309 17.3316 529.695 17.2501 535.089 17.2012C540.239 17.1523 546.196 16.0034 551.265 16.7938C555.029 17.3805 554.964 18.9613 554.801 22.3186L554.818 22.3268Z" fill="black"/>
<path d="M68.2064 41.9163C64.8165 42.0956 61.4918 43.1876 58.1101 43.0979C56.627 43.0572 56.6433 45.3144 58.1101 45.3877C61.5407 45.5588 64.7432 46.7567 68.2064 46.8137C70.7407 46.8545 73.7394 47.1886 75.524 45.1433C76.0211 44.5728 76.1189 43.6765 75.524 43.1142C73.495 41.2237 70.8222 41.7778 68.2064 41.9082V41.9163Z" fill="black"/>
<path d="M29.1496 84.3877C28.2451 83.9477 26.8272 84.4529 26.9331 85.6589C27.1776 88.3724 28.4243 90.8089 29.4674 93.2943C30.6652 96.1545 31.8794 98.9658 32.8165 101.932C34.047 105.827 40.1585 104.189 38.9688 100.237C37.3146 94.7692 34.6907 87.0768 29.1496 84.3958V84.3877Z" fill="black"/>
<path d="M43.744 91.7541C43.4181 90.8904 43.2062 89.9614 42.6276 89.2362C42.2691 88.788 41.4216 89.0324 41.3157 89.5784C40.949 91.5748 42.2854 94.0602 43.1329 95.8203C43.7277 97.059 45.5693 95.9752 44.9826 94.7447C44.5182 93.7669 44.1352 92.7646 43.7522 91.7541H43.744Z" fill="black"/>
<path d="M535.929 29.2777C535.358 30.3207 534.071 29.8726 533.191 29.5222C532.017 29.0495 530.999 28.3406 529.703 28.5525C529.263 28.6258 528.904 29.1555 528.921 29.5873C529.002 31.8038 531.716 33.515 533.704 33.8573C535.953 34.2484 538.292 33.3602 539.433 31.323C540.712 29.0495 537.192 26.996 535.937 29.2777H535.929Z" fill="black"/>
</g>
<defs>
<clipPath id="clip0_2005_1622">
<rect width="550" height="118.165" fill="white" transform="translate(10 11)"/>
</clipPath>
</defs>
</svg>
