<svg width="160" height="60" viewBox="0 0 160 60" fill="none" xmlns="http://www.w3.org/2000/svg">
<path d="M153.739 44.7975L153.786 45.0499C154.574 46.5912 155.382 48.176 155.572 49.8948C155.765 51.6175 155.209 53.5334 153.766 54.4914C152.895 55.0709 151.823 55.2404 150.79 55.3902C141.131 56.8251 131.371 58.264 121.637 57.4874C116.45 57.0735 111.321 56.0327 106.129 55.6543C95.15 54.854 84.1474 57.0262 73.1487 56.6241C68.769 56.4624 64.4129 55.8948 60.041 55.6228C44.1225 54.6372 28.2356 57.5899 12.2934 58.1379C10.413 58.2009 8.46557 58.2207 6.73496 57.4795C5.00829 56.7384 3.54968 55.0275 3.70343 53.151C3.79804 51.9999 4.46033 50.9789 4.72445 49.8554C5.505 46.5321 2.71789 43.3941 2.5326 39.9842C3.41565 39.9093 4.30264 39.8541 5.18963 39.8186L5.16992 39.4244C5.77307 38.8646 6.02537 37.9539 5.79672 37.1655C5.64692 36.6412 5.31184 36.1918 5.03983 35.7187C4.31052 34.4375 4.03851 32.904 4.28687 31.4494C4.55888 29.8685 5.39856 28.1852 4.65743 26.7661C4.53523 26.5335 4.3736 26.2851 4.39725 26.0368C5.12261 25.9658 5.84797 25.9185 6.57727 25.9067C6.24613 25.8396 5.91893 25.7569 5.59567 25.6701C5.16992 25.5558 4.58648 25.5006 4.42485 25.9067C4.40908 25.95 4.39725 25.9934 4.39725 26.0368C3.50632 26.1235 2.61933 26.2496 1.74417 26.4191C1.01093 22.0473 1.07006 17.5453 1.9058 13.1892C7.29869 13.3193 12.6876 13.4494 18.0805 13.5795C20.1029 13.6268 22.1528 13.6741 24.1239 13.2247C24.4629 13.1459 24.794 13.0552 25.1291 12.9606C27.4984 12.6097 29.8795 12.5506 32.2684 12.6491C37.1646 12.8462 42.0884 13.7214 46.9845 14.2063C60.5496 15.5466 74.2052 13.8752 87.7821 12.657C110.126 10.6505 132.565 9.86202 154.996 9.80683C156.021 9.80289 157.172 9.85414 157.87 10.6031C158.465 11.2418 158.54 12.1918 158.56 13.067C158.67 17.2299 158.319 21.4086 157.515 25.4967C156.672 25.4257 155.824 25.3508 154.98 25.2799L154.969 25.4257C154.961 26.8607 154.953 28.2917 154.941 29.7266C154.941 30.2588 154.969 30.862 155.375 31.2049C155.804 31.5676 156.478 31.4809 156.928 31.816C157.444 32.1984 157.46 32.9553 157.421 33.5978C157.216 36.925 156.924 40.2483 156.549 43.5597C156.526 43.7923 156.49 44.0446 156.321 44.2102C156.175 44.3521 155.962 44.3954 155.761 44.4309L153.739 44.7975Z" fill="#D4C099"/>
<path d="M153.739 37.4768L153.786 37.729C154.574 39.2704 155.382 40.8552 155.572 42.574C155.765 44.2967 155.209 46.2126 153.766 47.1706C152.895 47.7501 151.823 47.9196 150.79 48.0694C141.131 49.5043 131.371 50.9432 121.637 50.1666C116.45 49.7527 111.321 48.7119 106.129 48.3335C95.15 47.5332 84.1474 49.7054 73.1487 49.3033C68.769 49.1416 64.4129 48.574 60.041 48.302C44.1225 47.3164 28.2356 50.2691 12.2934 50.8171C10.413 50.8801 8.46557 50.8998 6.73496 50.1587C5.00829 49.4176 3.54968 47.7067 3.70343 45.8302C3.79804 44.6791 4.46033 43.6581 4.72445 42.5346C5.505 39.2113 2.71789 36.0733 2.5326 32.6634C3.41565 32.5885 4.30264 32.5333 5.18963 32.4978L5.16992 32.1036C5.77307 31.5438 6.02537 30.6331 5.79672 29.8447C5.64692 29.3204 5.31184 28.871 5.03983 28.3979C4.31052 27.1167 4.03851 25.5832 4.28687 24.1286C4.55888 22.5477 5.39856 20.8644 4.65743 19.4453C4.53523 19.2127 4.3736 18.9643 4.39725 18.716C5.12261 18.645 5.84797 18.5977 6.57727 18.5859C6.24613 18.5188 5.91893 18.4361 5.59567 18.3493C5.16992 18.235 4.58648 18.1798 4.42485 18.5859C4.40908 18.6292 4.39725 18.6726 4.39725 18.716C3.50632 18.8027 2.61933 18.9288 1.74417 19.0983C1.01093 14.7265 1.07006 10.2245 1.9058 5.86841C7.29869 5.9985 12.6876 6.12859 18.0805 6.25868C20.1029 6.30599 22.1528 6.3533 24.1239 5.90389C24.4629 5.82505 24.794 5.73438 25.1291 5.63977C27.4984 5.28891 29.8795 5.22978 32.2684 5.32833C37.1646 5.52544 42.0884 6.40061 46.9845 6.88549C60.5496 8.22583 74.2052 6.55435 87.7821 5.33622C110.126 3.32965 132.565 2.54122 154.996 2.48603C156.021 2.48209 157.172 2.53334 157.87 3.28235C158.465 3.92098 158.54 4.87104 158.56 5.74621C158.67 9.90914 158.319 14.0878 157.515 18.1759C156.672 18.1049 155.824 18.03 154.98 17.9591L154.969 18.1049C154.961 19.5399 154.953 20.9709 154.941 22.4058C154.941 22.938 154.969 23.5412 155.375 23.8841C155.804 24.2468 156.478 24.1601 156.928 24.4952C157.444 24.8776 157.46 25.6345 157.421 26.277C157.216 29.6042 156.924 32.9275 156.549 36.2389C156.526 36.4715 156.49 36.7238 156.321 36.8894C156.175 37.0313 155.962 37.0746 155.761 37.1101L153.739 37.4768Z" fill="#602832"/>
<path d="M156.928 24.4956C156.628 24.2709 156.226 24.2354 155.867 24.125C155.099 27.1999 153.88 32.1473 153.88 32.5612C153.88 33.1644 150.179 38.7347 150.179 38.7347L153.947 38.0409C153.896 37.9384 153.841 37.8319 153.79 37.7294L153.742 37.4771C154.417 37.3549 155.091 37.2327 155.765 37.1105C155.966 37.075 156.179 37.0317 156.325 36.8897C156.494 36.7242 156.53 36.4719 156.553 36.2393C156.928 32.9279 157.219 29.6046 157.424 26.2774C157.464 25.6349 157.448 24.878 156.932 24.4956H156.928Z" fill="#A85668"/>
<path d="M4.11333 36.4248L3.58508 36.5943C3.91228 37.4301 4.24737 38.2619 4.49178 39.0937C4.22371 37.5799 4.11333 36.4248 4.11333 36.4248Z" fill="#A85668"/>
<path d="M6.7349 50.1589C8.46551 50.9 10.4129 50.8803 12.2934 50.8172C28.2355 50.2693 44.1225 47.3166 60.041 48.3021C64.4128 48.5741 68.7689 49.1418 73.1487 49.3034C84.1473 49.7055 95.1499 47.5334 106.129 48.3337C111.321 48.7121 116.45 49.7528 121.637 50.1668C131.371 50.9434 141.131 49.5045 150.79 48.0695C151.823 47.9197 152.895 47.7502 153.766 47.1707C155.209 46.2128 155.765 44.2969 155.572 42.5741C155.56 42.4598 155.536 42.3455 155.52 42.2312C148.905 44.0485 134.611 47.5334 129.723 45.243C123.281 42.2233 109.795 43.4296 105.967 43.4296C102.139 43.4296 62.6862 46.0472 59.0633 44.5768C55.4404 43.1103 51.6165 41.8172 39.5377 43.2246C27.4589 44.632 9.94777 47.4506 7.42478 46.059C6.17117 45.3652 5.34726 42.9841 4.83477 40.7607C4.88996 41.3481 4.86631 41.9355 4.72834 42.5308C4.46421 43.6543 3.80192 44.6753 3.70731 45.8264C3.55357 47.7029 5.01217 49.4138 6.73884 50.1549L6.7349 50.1589Z" fill="#A85668"/>
<path d="M151.085 1.05126C140.674 0.842322 130.196 1.31144 119.793 1.74902C109.354 2.1866 98.9345 3.00657 88.5626 4.28778C83.3944 4.92641 78.3682 5.38765 73.1606 5.34034C68.0239 5.29304 62.8912 5.77792 57.7545 5.83311C52.133 5.89225 46.5864 5.52562 40.9885 5.01708C38.6153 4.80026 36.2303 4.63075 33.8453 4.58344C32.7769 4.34297 31.7244 4.07884 30.6403 3.83837C27.8453 3.22733 25.7007 4.15375 22.9806 4.5795C19.6298 5.10381 16.074 4.70171 12.6955 4.67805C9.10025 4.6544 5.50499 4.6544 1.91367 4.57161C1.38936 4.55979 0.766502 4.97766 0.667947 5.52168C-0.171735 10.1616 -0.219041 14.7779 0.522087 19.4336C0.632468 20.1353 1.48003 20.4625 2.09107 20.3245C2.67451 20.1905 3.25795 20.0762 3.8414 19.9737C3.88082 20.1195 3.91236 20.2969 3.90841 20.5492C3.90053 21.1406 3.65611 21.7477 3.47872 22.2996C3.15152 23.3088 2.87162 24.3101 2.86768 25.3823C2.86768 26.3521 3.08844 27.2982 3.46295 28.1892C3.82169 29.0407 5.1226 30.4323 4.40513 31.3271C4.3657 31.3744 4.33811 31.4257 4.30657 31.4769C3.71919 31.4927 3.12786 31.5203 2.54048 31.5558C1.98463 31.5913 1.38542 32.0328 1.43667 32.6596C1.64561 35.151 2.81643 37.2759 3.42747 39.6648C4.09764 42.2667 2.24087 44.1905 2.54442 46.7056C3.26584 52.6622 10.5904 52.4966 14.9977 52.264C27.9833 51.5741 40.8702 49.54 53.8833 49.3468C60.3485 49.2483 66.7072 50.0525 73.1527 50.3481C79.74 50.6517 86.1382 50.4072 92.7216 49.9973C99.1434 49.5952 105.459 49.6504 111.841 50.5176C118.2 51.381 124.44 52.1103 130.87 51.8185C137.808 51.5032 144.948 50.5728 151.748 49.1615C154.133 48.6688 156.025 47.2929 156.47 44.7936C156.853 42.6648 156.017 40.6425 155.036 38.7739C155.524 38.6438 156.005 38.4901 156.463 38.289C158.603 37.3508 158.087 33.9487 158.185 32.0249C158.264 30.4914 158.3 28.9579 158.331 27.4244C158.351 26.4586 158.524 25.3863 158.099 24.4796C157.712 23.6557 156.92 23.4901 156.415 22.812C155.934 22.1616 155.832 20.5177 155.773 19.2444C156.226 19.3548 156.679 19.4691 157.133 19.5913C157.941 19.8081 158.674 19.3193 158.938 18.5663C160.361 14.5295 160.141 9.12877 159.51 4.95007C158.844 0.538775 154.582 1.12222 151.089 1.05126H151.085ZM157.488 6.47963C157.424 7.70565 157.318 8.9356 157.172 10.1537C156.912 12.3574 156.376 14.5926 156.147 16.8121C153.088 17.0171 150.124 16.9934 147.029 16.8002C146.414 16.7608 146.438 17.6793 147.029 17.7424C149.449 18.0065 151.787 18.3732 154.125 18.8738C153.861 20.5611 153.329 22.5479 154.062 24.0578C154.401 24.7516 154.909 24.929 155.556 25.2365C156.226 25.5597 156.34 25.5124 156.478 26.2733C156.581 26.8449 156.336 27.6254 156.265 28.1931C156.1 29.5453 155.926 30.8935 155.749 32.2457C155.651 32.9829 155.572 35.628 155.162 35.8449C154.531 36.176 152.974 36.0499 152.229 36.2549C151.156 36.5545 150.061 37.0315 149.099 37.5834C148.57 37.8869 148.61 38.8764 149.28 38.9868C150.695 39.2154 152.237 39.2627 153.723 39.0459C154.622 41.155 155.398 43.8672 153.715 45.6885C152.714 46.7726 151.046 46.7883 149.682 46.9697C148.011 47.1904 146.339 47.4191 144.668 47.6241C139.078 48.3179 133.417 48.8462 127.779 48.858C121.973 48.8698 116.3 47.9394 110.556 47.2259C104.99 46.536 99.447 46.5124 93.853 46.8435C87.9634 47.1944 82.0896 47.7936 76.2039 48.1996C70.5587 48.5938 64.8702 47.5413 59.2565 47.1155C47.6902 46.2404 36.1278 47.5255 24.6127 48.4795C21.2776 48.7555 17.9386 48.9999 14.5956 49.1497C11.9465 49.268 7.83482 50.0761 5.76123 47.9552C4.30263 46.4651 5.21327 45.0341 5.70604 43.402C6.02536 42.3416 6.09632 41.3048 5.94257 40.2089C5.61537 37.9066 4.32234 35.8961 3.80197 33.653C9.84927 33.1839 15.8256 33.3022 21.8177 34.4099C22.346 34.5085 22.5825 33.7279 22.0424 33.5899C17.0792 32.3324 11.9623 31.544 6.83745 31.4612C7.16465 30.6451 7.1883 29.7542 6.80197 28.8239C6.37621 27.795 5.76123 26.9671 5.5996 25.8278C5.41432 24.5269 5.78883 23.3088 5.94652 22.0276C6.04507 21.2312 6.06478 20.4901 5.78094 19.7293C5.777 19.7174 5.77306 19.7017 5.76912 19.6898C6.11997 19.6544 6.47082 19.6307 6.82562 19.6071C8.90709 20.0092 11.296 20.1156 13.3144 19.4415C13.9728 19.2207 13.8111 18.3495 13.1567 18.2785C11.8874 18.1445 10.618 18.2076 9.34467 18.0499C8.78094 17.9789 8.21326 17.8646 7.64559 17.7464C7.49185 17.632 7.2908 17.5571 7.04244 17.5532C6.91235 17.5532 6.78226 17.5532 6.65216 17.5532C6.29343 17.4901 5.93863 17.4389 5.58384 17.4113C5.08712 17.3719 4.66531 17.431 4.33811 17.5926C3.83351 17.6163 3.32497 17.6517 2.82037 17.699C2.37885 14.1984 2.43404 10.6702 2.982 7.18528C5.95834 7.272 8.93468 7.40998 11.9071 7.53613C15.3171 7.67805 18.8374 8.01314 22.2435 7.70565C25.1212 7.44546 27.6639 6.37713 30.593 6.37319C33.2145 6.36925 35.9031 6.75952 38.5443 6.79895C43.2828 7.50459 48.0134 8.44677 52.7362 8.73849C57.4549 9.03021 62.2644 9.08146 66.9832 8.68724C71.9069 8.27726 76.7124 7.20893 81.6205 6.70827C91.1487 5.7385 100.835 5.56505 110.406 5.15506C120.309 4.72931 130.208 4.29566 140.122 4.11038C142.732 4.06307 145.338 4.02365 147.948 4C150.439 3.97635 153.321 3.4205 155.773 3.80289C157.594 4.08673 157.562 4.85151 157.484 6.47568L157.488 6.47963Z" fill="black"/>
<path d="M28.1528 15.9565C26.5128 16.0432 24.9044 16.5714 23.2684 16.5281C22.551 16.5084 22.5588 17.6003 23.2684 17.6358C24.9281 17.7186 26.4774 18.2981 28.1528 18.3257C29.3788 18.3454 30.8295 18.507 31.6929 17.5176C31.9333 17.2416 31.9806 16.808 31.6929 16.536C30.7113 15.6214 29.4182 15.8894 28.1528 15.9525V15.9565Z" fill="black"/>
<path d="M9.25791 36.4992C8.82033 36.2863 8.13439 36.5308 8.18564 37.1142C8.3039 38.4269 8.90705 39.6057 9.41165 40.808C9.99115 42.1917 10.5785 43.5518 11.0319 44.9867C11.6272 46.8711 14.5838 46.0787 14.0082 44.1668C13.208 41.5216 11.9386 37.8001 9.25791 36.5032V36.4992Z" fill="black"/>
<path d="M16.3184 40.0628C16.1607 39.6449 16.0582 39.1955 15.7783 38.8446C15.6048 38.6278 15.1948 38.7461 15.1436 39.0102C14.9662 39.976 15.6127 41.1784 16.0227 42.0299C16.3105 42.6291 17.2014 42.1048 16.9176 41.5095C16.6929 41.0365 16.5076 40.5516 16.3223 40.0628H16.3184Z" fill="black"/>
<path d="M148.35 9.84207C148.074 10.3467 147.451 10.1298 147.025 9.96033C146.457 9.73168 145.965 9.38872 145.338 9.49122C145.125 9.5267 144.951 9.78293 144.959 9.99187C144.999 11.0641 146.312 11.892 147.273 12.0576C148.361 12.2468 149.493 11.8171 150.045 10.8316C150.664 9.73169 148.961 8.73826 148.354 9.84207H148.35Z" fill="black"/>
</svg>
