<svg width="160" height="60" viewBox="0 0 160 60" fill="none" xmlns="http://www.w3.org/2000/svg">
<g clip-path="url(#clip0_2003_1092)">
<path d="M155.632 26.4896L155.592 26.7345C156.406 32.3915 157.216 38.2065 155.916 43.7727C155.549 45.3568 155.008 46.9488 155.162 48.5645C155.265 49.6035 155.648 50.5911 155.905 51.5984C156.462 53.7633 156.426 56.0782 155.814 58.2272C148.418 58.1719 141.019 58.1206 133.624 58.0692C128.208 58.0297 122.792 57.9902 117.38 57.9547C113.714 57.927 110.048 57.8993 106.386 57.8993C79.0927 57.8756 51.7993 59.1398 24.6244 61.6799C23.0324 61.83 21.3772 61.9762 19.876 61.4231C19.0227 61.1071 18.2563 60.5777 17.3872 60.313C16.2061 59.9496 14.934 60.1037 13.7055 60.2617C9.60888 60.7831 5.5123 61.3007 1.41572 61.8221C1.71595 59.8943 1.92137 57.9547 2.03989 56.011C2.13075 54.5138 2.1663 53.0127 2.14655 51.5115C2.1584 51.476 2.1663 51.4404 2.17815 51.4049C2.28876 51.0493 2.45468 50.6898 2.40727 50.3185C2.37567 50.0657 2.24531 49.8287 2.09914 49.5995C1.80286 49.1294 1.43152 48.6909 1.64484 48.2169C1.85027 47.7626 2.45073 47.6915 2.94848 47.6875C3.09465 47.6875 3.24081 47.6875 3.38698 47.6915V47.5216C4.72222 46.8777 4.93949 45.0012 4.41408 43.6186C3.88868 42.236 2.85367 41.1061 2.23741 39.759C1.49078 38.1354 1.39992 36.2985 1.32091 34.5129C1.09969 29.4998 0.878465 24.4551 1.58559 19.4855C0.953523 17.2575 0.902167 14.8635 1.43547 12.6079C10.2488 11.9205 19.0662 13.4295 27.8795 14.0972C36.9457 14.7806 46.0554 14.5752 55.1413 14.2789C87.0844 13.232 118.988 11.0474 150.773 7.72515C152.12 7.58688 153.684 7.51973 154.605 8.51128C154.972 8.91027 155.178 9.42778 155.375 9.92948C157.524 15.3929 159.709 21.3185 158.231 27.0032C157.374 26.7977 156.505 26.6239 155.632 26.4896Z" fill="#D4C099"/>
<path d="M155.632 19.1537L155.592 19.3986C156.406 25.0556 157.216 30.8706 155.916 36.4367C155.549 38.0208 155.008 39.6129 155.162 41.2286C155.265 42.2675 155.648 43.2551 155.905 44.2625C156.462 46.4273 156.426 48.7423 155.814 50.8913C148.418 50.836 141.019 50.7846 133.624 50.7333C128.208 50.6938 122.792 50.6543 117.38 50.6187C113.714 50.5911 110.048 50.5634 106.386 50.5634C79.0927 50.5397 51.7993 51.8038 24.6244 54.344C23.0324 54.4941 21.3772 54.6402 19.876 54.0872C19.0227 53.7711 18.2563 53.2418 17.3872 52.9771C16.2061 52.6137 14.934 52.7677 13.7055 52.9258C9.60888 53.4472 5.5123 53.9647 1.41572 54.4862C1.71595 52.5584 1.92137 50.6187 2.03989 48.6751C2.13075 47.1779 2.1663 45.6767 2.14655 44.1756C2.1584 44.14 2.1663 44.1045 2.17815 44.0689C2.28876 43.7134 2.45468 43.3539 2.40727 42.9826C2.37567 42.7297 2.24531 42.4927 2.09914 42.2636C1.80286 41.7935 1.43152 41.355 1.64484 40.8809C1.85027 40.4267 2.45073 40.3555 2.94848 40.3516C3.09465 40.3516 3.24081 40.3516 3.38698 40.3555V40.1857C4.72222 39.5418 4.93949 37.6653 4.41408 36.2827C3.88868 34.9 2.85367 33.7702 2.23741 32.4231C1.49078 30.7995 1.39992 28.9626 1.32091 27.177C1.09969 22.1639 0.878465 17.1192 1.58559 12.1496C0.953523 9.92156 0.902167 7.52761 1.43547 5.27192C10.2488 4.58455 19.0662 6.09361 27.8795 6.76123C36.9457 7.44465 46.0554 7.23923 55.1413 6.94295C87.0844 5.89609 118.988 3.71151 150.773 0.389212C152.12 0.250947 153.684 0.18379 154.605 1.17534C154.972 1.57434 155.178 2.09184 155.375 2.59354C157.524 8.05696 159.709 13.9826 158.231 19.6672C157.374 19.4618 156.505 19.288 155.632 19.1537Z" fill="#602832"/>
<path d="M3.3908 40.1858V40.3556C3.24069 40.3517 3.09452 40.3517 2.94836 40.3517C2.61652 40.3517 2.24518 40.3912 1.96866 40.5413H6.89877C6.89877 40.5413 7.60985 38.5226 7.65725 37.3138C7.70466 36.105 7.40837 34.0863 6.89877 32.8775C6.38917 31.6687 4.38236 27.4299 3.58437 25.0122C3.10242 23.5545 2.15827 17.5776 1.4788 13.0425C0.913895 17.7237 1.11142 22.4642 1.32079 27.181C1.3998 28.9666 1.49066 30.8035 2.23728 32.4272C2.85355 33.7742 3.88856 34.9041 4.41396 36.2867C4.93937 37.6694 4.72209 39.5458 3.3908 40.1897V40.1858Z" fill="#A85668"/>
<path d="M23.7513 49.8206C23.1469 49.6192 22.1356 45.5858 20.1209 46.1902C18.1022 46.7946 5.39372 49.8206 5.39372 49.8206L2.14253 44.7404C2.14648 46.0519 2.11882 47.3635 2.03981 48.6711C1.9213 50.6147 1.71588 52.5543 1.41565 54.4821C5.51223 53.9607 9.60881 53.4432 13.7054 52.9217C14.934 52.7637 16.206 52.6096 17.3872 52.9731C18.2563 53.2377 19.0226 53.7671 19.8759 54.0831C21.3771 54.6362 23.0323 54.49 24.6243 54.3399C51.7992 51.7998 79.0926 50.5357 106.386 50.5594C110.048 50.5594 113.714 50.587 117.38 50.6147C122.792 50.6502 128.208 50.6897 133.624 50.7292C141.019 50.7806 148.418 50.8319 155.814 50.8872C156.426 48.7382 156.461 46.4233 155.904 44.2585C155.648 43.2511 155.264 42.2635 155.162 41.2245C155.008 39.6088 155.549 38.0168 155.916 36.4327C156.829 32.5178 156.698 28.4766 156.26 24.459C155.592 25.0673 154.7 26.288 153.866 28.7452C152.25 33.4936 148.418 35.295 151.121 40.3396C153.819 45.3843 151.448 45.7873 145.191 45.7873C138.933 45.7873 103.234 42.9627 102.226 42.7612C101.219 42.5598 98.1929 46.1902 96.5771 46.5931C94.9614 46.9961 71.7646 45.1828 64.3023 46.3917C56.8399 47.6005 24.3596 50.0221 23.7552 49.8206H23.7513Z" fill="#A85668"/>
<path d="M0.013268 23.0331C0.100177 25.8774 -0.0736411 29.0456 0.787549 31.7872C1.39986 33.7348 4.72216 37.0373 3.35137 39.0915C2.11884 39.1034 0.811252 39.3681 0.514971 40.727C0.364855 41.4144 0.70064 41.8252 0.965318 42.398C0.827053 46.3247 0.906061 50.2554 0.175235 54.1426C0.0330201 54.8892 0.518921 55.8492 1.41566 55.7702C3.85307 55.5569 6.26677 55.2487 8.69233 54.9208C11.0626 54.6009 13.7844 53.8384 16.1784 54.1031C18.1852 54.3283 19.7693 55.7267 21.8749 55.8492C24.4426 55.9993 27.1171 55.4936 29.673 55.2685C39.9006 54.3717 50.144 53.6528 60.3993 53.1195C70.5242 52.5901 80.657 52.2464 90.7898 52.0015C95.9886 51.8751 101.187 51.7566 106.386 51.6657C108.74 51.6222 111.099 51.5788 113.453 51.6025C116.191 51.6341 118.889 52.0489 121.635 52.0686C133.036 52.1555 144.417 51.9817 155.818 51.7882C156.201 51.7803 156.6 51.5116 156.691 51.1245C157.248 48.7226 157.362 46.3998 156.963 43.9663C156.513 41.2327 157.263 38.7715 157.528 36.0695C158.042 30.8865 157.757 25.6246 156.77 20.5206C157.153 20.6155 157.54 20.7103 157.915 20.8209C158.547 21.0026 159.211 20.5996 159.397 19.9794C160.937 14.753 159.258 9.23036 157.378 4.3279C156.718 2.60947 156.228 0.436743 154.443 -0.467902C152.44 -1.48316 149.742 -0.772083 147.652 -0.558761C135.923 0.642164 124.183 1.69297 112.426 2.58577C100.67 3.47856 88.9055 4.21729 77.1332 4.80985C71.1128 5.11403 65.0924 5.35501 59.0759 5.64734C53.095 5.93572 47.1061 6.38606 41.1213 6.13324C34.611 5.86066 28.156 5.65129 21.6655 4.99947C14.9419 4.3279 8.19062 3.51806 1.44332 4.25284C1.02457 4.30025 0.554475 4.53332 0.463615 4.99947C0.183136 6.46507 -0.0380874 7.91487 0.0488217 9.41208C0.115979 10.5814 0.420161 11.7231 0.368805 12.8924C0.214739 16.2937 -0.0815419 19.6081 0.0211688 23.0331H0.013268ZM34.8836 8.29016C40.3351 8.44818 45.7946 8.1361 51.2501 8.09659C56.8716 8.05709 62.4891 7.90697 68.1026 7.6739C90.4817 6.7495 112.833 5.24835 135.137 3.19413C138.266 2.90575 141.395 2.60552 144.523 2.29739C146.088 2.14332 147.652 1.9853 149.216 1.82334C150.326 1.70878 151.926 1.26238 153.017 1.66532C154.411 2.17887 154.794 4.45431 155.241 5.69474C155.703 6.98258 156.13 8.27831 156.493 9.59775C157.299 12.5329 157.595 15.3416 157.232 18.3084C152.697 17.6882 148.43 17.8265 143.868 18.7706C143.346 18.8773 143.453 19.7819 143.994 19.7148C147.486 19.2881 151.188 19.4185 154.715 20.0742C155.142 25.4824 156.134 30.7206 154.407 36.0221C153.724 38.1158 152.946 40.5097 153.953 42.6153C155.114 45.0448 155.671 47.3518 155.118 49.967C145.12 49.6549 135.129 49.3113 125.123 49.248C120.039 49.2164 115.006 49.651 109.926 49.5364C104.849 49.4219 99.773 49.3192 94.6968 49.3508C74.1625 49.4693 53.6401 50.5003 33.177 52.2109C30.3287 52.4479 27.4805 52.7205 24.6322 52.9654C23.1824 53.0918 21.6497 53.2735 20.2473 52.7718C19.1807 52.3926 18.2839 51.7684 17.1541 51.5511C14.7167 51.081 11.9119 51.8237 9.48636 52.116C7.27413 52.3807 5.07375 52.6494 2.87337 52.9772C3.21705 49.7616 3.51728 46.546 3.30396 43.3264C3.32766 43.1763 3.34347 43.0222 3.33557 42.8721C3.33557 42.8207 3.29211 42.6864 3.23681 42.5244C3.2052 42.1966 3.16965 41.8647 3.12619 41.5368C3.71481 41.4302 5.26732 41.6237 5.61495 41.6237C7.74818 41.6316 9.8972 41.6791 12.0265 41.7818C12.6269 41.8094 12.6783 40.964 12.1608 40.7823C9.92485 40.0001 7.68497 39.451 5.34238 39.2258C5.76507 38.2659 5.76902 37.1084 5.43719 36.0221C5.03424 34.7026 4.1454 33.636 3.50938 32.4351C2.58894 30.693 2.53363 28.7494 2.44672 26.8215C2.29266 23.3136 2.15044 19.7977 2.34401 16.2858C2.42697 14.7293 2.81016 13.0702 2.57314 11.5414C2.28476 9.70046 2.01218 8.09659 2.28081 6.2952C13.1958 6.04238 23.9844 7.99388 34.8836 8.31387V8.29016Z" fill="black"/>
</g>
<defs>
<clipPath id="clip0_2003_1092">
<rect width="160" height="60" fill="white"/>
</clipPath>
</defs>
</svg>
