<svg width="160" height="60" viewBox="0 0 160 60" fill="none" xmlns="http://www.w3.org/2000/svg">
<path d="M152.949 20.1738C153.538 20.1097 154.132 20.0456 154.725 19.9814C155.458 19.9013 156.376 19.9133 156.721 20.5666C156.877 20.8632 156.861 21.2199 156.841 21.5525C156.729 23.4923 156.612 25.432 156.3 27.3478C156.095 28.5701 155.815 29.7925 155.819 31.0309C155.827 31.9287 155.983 32.8184 155.995 33.7162C156.023 36.1288 155.025 38.7018 156.115 40.854L156.103 40.9382C156.989 41.0464 157.871 41.1506 158.757 41.2588C158.761 46.4048 157.915 51.5508 156.272 56.4283C130.574 55.4143 104.88 54.4004 79.1818 53.3864C77.7551 53.3303 76.3082 53.2742 74.9175 53.6068C73.4868 53.9515 72.1882 54.6929 70.8136 55.222C67.956 56.3281 64.8339 56.5045 61.772 56.6407C44.7669 57.3982 27.7378 57.286 10.7167 57.1737C9.99531 57.1657 9.20578 57.1417 8.6527 56.6768C6.96141 55.262 9.35006 52.0478 7.85916 50.4206C7.29406 49.8034 6.36826 49.6912 5.67491 49.2223C4.49662 48.4167 4.26016 46.7936 4.19603 45.3668C3.94354 39.9523 4.57277 34.4937 6.05164 29.2755L6.05966 29.015C5.22604 28.9469 4.44051 28.7184 3.86339 28.1293C3.12195 27.3638 2.96965 26.2055 2.96564 25.1395C2.95763 23.9371 3.08187 22.7348 3.33436 21.5645C3.52273 20.6868 3.78323 19.765 3.51471 18.9114C3.37844 18.4905 3.12996 18.1258 2.85743 17.7732C1.94366 15.9937 1.41062 14.0219 1.30642 12.022C1.29439 11.7695 1.28638 11.517 1.28638 11.2645C12.0713 13.3525 22.9926 14.7232 33.9539 15.3645C56.101 16.659 78.3001 14.9797 100.407 13.1321C107.092 12.575 113.773 12.0019 120.454 11.4128C128.646 10.6914 136.938 9.94592 145.046 11.2885C148.633 11.8777 152.148 12.8756 155.51 14.2503C154.236 15.9616 153.35 17.9575 152.937 20.0496L152.949 20.1738Z" fill="#D4C099"/>
<path d="M152.949 12.7314C153.538 12.6673 154.132 12.6032 154.725 12.539C155.458 12.4589 156.376 12.4709 156.721 13.1242C156.877 13.4208 156.861 13.7775 156.841 14.1101C156.729 16.0499 156.612 17.9896 156.3 19.9054C156.095 21.1277 155.815 22.3501 155.819 23.5885C155.827 24.4863 155.983 25.376 155.995 26.2738C156.023 28.6864 155.025 31.2594 156.115 33.4116L156.103 33.4958C156.989 33.604 157.871 33.7082 158.757 33.8164C158.761 38.9624 157.915 44.1084 156.272 48.9859C130.574 47.9719 104.88 46.958 79.1818 45.944C77.7551 45.8879 76.3082 45.8318 74.9175 46.1644C73.4868 46.5091 72.1882 47.2505 70.8136 47.7796C67.956 48.8857 64.8339 49.0621 61.772 49.1983C44.7669 49.9558 27.7378 49.8436 10.7167 49.7314C9.99531 49.7233 9.20578 49.6993 8.6527 49.2344C6.96141 47.8197 9.35006 44.6054 7.85916 42.9782C7.29406 42.361 6.36826 42.2488 5.67491 41.7799C4.49662 40.9743 4.26016 39.3512 4.19603 37.9244C3.94354 32.5099 4.57277 27.0513 6.05164 21.8331L6.05966 21.5726C5.22604 21.5045 4.44051 21.276 3.86339 20.6869C3.12195 19.9214 2.96965 18.7632 2.96564 17.6971C2.95763 16.4947 3.08187 15.2924 3.33436 14.1221C3.52273 13.2444 3.78323 12.3226 3.51471 11.469C3.37844 11.0481 3.12996 10.6834 2.85743 10.3308C1.94366 8.5513 1.41062 6.57946 1.30642 4.57957C1.29439 4.32708 1.28638 4.07458 1.28638 3.82209C12.0713 5.91015 22.9926 7.28082 33.9539 7.92207C56.101 9.21659 78.3001 7.53732 100.407 5.68973C107.092 5.13264 113.773 4.55954 120.454 3.97039C128.646 3.24899 136.938 2.50354 145.046 3.84615C148.633 4.4353 152.148 5.43323 155.51 6.8079C154.236 8.51923 153.35 10.5151 152.937 12.6072L152.949 12.7314Z" fill="#602832"/>
<path d="M70.8136 47.7799C72.1882 47.2509 73.4868 46.5094 74.9175 46.1647C76.3082 45.8321 77.755 45.8882 79.1818 45.9443C104.88 46.9583 130.574 47.9722 156.272 48.9862C157.915 44.1087 158.761 38.9627 158.757 33.8167C158.532 33.7887 158.308 33.7606 158.083 33.7366C156.528 37.7243 154.264 43.4875 153.611 44.9263C152.589 47.1787 136.83 41.652 132.325 42.1008C127.824 42.5497 120.863 43.2871 117.384 44.1087C113.905 44.9263 76.2481 39.8124 73.5869 39.2433C70.9258 38.6782 61.5115 44.9263 57.2151 46.1207C52.9188 47.315 12.7086 46.1207 12.7086 46.1207C12.7086 46.1207 14.6443 41.8564 15.6463 39.2433C16.6482 36.6302 9.9392 38.1732 8.82103 36.3016C7.70686 34.4299 8.82103 21.3926 8.82103 21.3926L5.90736 22.3625C4.53269 27.4203 3.94755 32.6946 4.18802 37.9247C4.25214 39.3515 4.4886 40.9747 5.66689 41.7802C6.36024 42.2491 7.28604 42.3613 7.85114 42.9785C9.34204 44.6057 6.95339 47.82 8.64468 49.2347C9.19776 49.6996 9.98729 49.7237 10.7087 49.7317C27.7298 49.8439 44.7589 49.9561 61.764 49.1986C64.8259 49.0624 67.948 48.886 70.8055 47.7799H70.8136Z" fill="#A85668"/>
<path d="M158.757 32.6022C158.043 32.5501 157.33 32.51 156.62 32.4699C156.364 31.0752 156.705 29.6123 156.901 28.2176C157.077 26.9792 157.073 25.845 156.997 24.5986C156.825 21.6248 157.747 18.5548 157.955 15.569C158.079 13.7976 158.071 11.8378 155.927 11.4931C155.49 11.425 155.029 11.4009 154.556 11.409C155.065 10.0102 155.771 8.72774 156.648 7.47731C157.173 6.72785 156.592 5.80605 155.863 5.54154C136.862 -1.30778 116.743 3.6659 97.249 4.90831C76.9375 6.20684 56.6941 7.63361 36.3265 6.5996C30.5753 6.30703 24.8362 5.79803 19.109 5.20087C13.2256 4.58768 7.47441 3.38134 1.62705 2.5878C0.877589 2.4876 -0.0682502 2.89639 0.00389004 3.82219C0.100077 5.06461 0.34856 6.22687 0.717277 7.34504C0.789417 7.72979 0.889612 8.11054 1.03389 8.48727C1.24631 9.05237 1.54288 9.54132 1.86751 10.0303C2.08393 10.4431 2.31639 10.8519 2.56487 11.2607C2.96164 12.3307 2.67709 13.2846 2.40055 14.6112C1.83946 17.2844 1.57094 21.4765 4.71705 22.5987C2.92557 27.7487 2.32841 33.3957 3.06184 38.7942C3.29829 40.5216 4.15596 41.8602 5.72301 42.7018C7.20189 43.4993 7.53453 43.9923 7.20188 45.6716C7.01753 46.5974 6.73297 47.5592 6.9534 48.5091C7.31811 50.0922 8.65671 50.7615 10.1717 50.8777C13.5101 51.1342 16.9488 50.9418 20.2953 50.9578C26.6798 50.9939 33.0602 51.1222 39.4446 51.1662C45.829 51.2103 52.2094 51.0701 58.5858 50.8336C61.4193 50.7294 64.2728 50.5771 67.0663 50.0601C69.8317 49.5471 71.9558 48.1283 74.5689 47.2627C76.0918 46.7577 77.6308 47.0142 79.1858 47.1384C80.7729 47.2667 82.364 47.3308 83.9551 47.415C87.1333 47.5793 90.3115 47.7556 93.4937 47.9079C99.85 48.2125 106.206 48.5411 112.567 48.7816C127.135 49.3267 141.703 49.8517 156.276 50.2685C156.853 50.2845 157.342 49.8557 157.506 49.3307C159.069 44.3891 160.183 39.0266 159.975 33.8205C159.947 33.1272 159.438 32.6543 158.761 32.6062L158.757 32.6022ZM155.358 47.6634C131.431 46.4611 107.501 45.4832 83.5543 44.838C81.0535 44.7698 78.5446 44.6135 76.0598 44.9862C73.4186 45.379 71.0861 46.7136 68.477 47.2426C65.7477 47.7957 62.9463 47.6755 60.1809 47.7676C56.9907 47.8759 53.8045 48.0081 50.6103 48.0923C38.5067 48.4049 26.4152 48.6614 14.3077 48.5933C13.1695 48.5852 9.73481 49.1824 9.17773 47.7877C8.89317 47.0703 9.35006 45.7798 9.35808 45.0143C9.36609 44.1847 9.26189 43.3751 8.74088 42.7018C8.14372 41.9363 7.25399 41.8842 6.51254 41.3552C4.34032 39.8042 5.58274 34.2093 5.71099 32.017C5.89134 28.9951 6.35223 25.9973 6.86122 23.0155C10.4522 23.264 14.1754 21.5928 17.6943 21.8813C22.3393 22.2621 27.1006 24.5826 31.7697 23.3602C32.2706 23.2279 32.1504 22.4945 31.6494 22.4745C27.83 22.3262 24.1829 21.4324 20.4116 20.9315C18.1512 20.6309 15.8908 20.687 13.6745 20.198C11.895 19.8053 10.1196 19.9656 8.31605 20.1219C6.52457 20.2782 4.18001 20.683 3.91149 18.2342C3.71911 16.5069 4.15195 14.8276 4.29223 13.1203C4.36036 12.2867 4.25616 11.6534 3.97962 11.0202C3.9676 10.944 3.94756 10.8679 3.90748 10.7877C3.0458 9.09244 2.67308 7.29294 2.58892 5.44134C6.99749 6.41123 11.5824 6.93625 16.0311 7.5815C20.9486 8.29489 25.8742 8.83595 30.8318 9.18062C40.8313 9.87397 50.8588 9.95412 60.8702 9.54132C71.1703 9.11649 81.4543 8.39108 91.7262 7.51338C101.565 6.67174 111.4 6.09862 121.232 5.15679C132.101 4.11477 143.254 3.30919 153.57 7.41718C152.801 8.75979 152.264 10.1986 151.911 11.7175C150.492 11.9861 149.078 12.3748 147.883 12.6433C147.162 12.8037 147.334 13.9138 148.056 13.9178C149.294 13.9218 150.529 13.9178 151.763 13.8377C151.963 13.8257 152.264 13.7736 152.613 13.7134C153.001 13.8497 153.442 13.8096 153.755 13.5371C154.464 13.4489 155.142 13.4369 155.434 13.6814C155.955 14.1222 155.538 15.8897 155.478 16.6592C155.366 18.142 155.15 19.6009 154.925 21.0717C154.588 23.288 154.993 25.3961 154.873 27.6084C154.777 29.3558 154.612 30.8307 154.993 32.3817C153.967 32.3336 152.937 32.2896 151.907 32.2615C151.094 32.2415 150.897 33.5239 151.711 33.7003C153.631 34.1171 155.554 34.4858 157.486 34.8265C157.21 39.231 156.677 43.4472 155.362 47.6715L155.358 47.6634Z" fill="black"/>
<path d="M10.3881 10.1625C9.47432 9.85789 8.46034 10.0022 7.6668 10.5432C7.33816 10.7677 7.09369 11.0282 6.90933 11.3167C5.56672 12.1864 5.77512 14.2985 6.61275 15.569C7.85918 17.4647 10.4322 17.3925 11.5904 15.4127C12.5804 13.7254 12.5563 10.8799 10.3881 10.1625ZM9.71077 13.5851C9.29797 15.8055 8.16377 14.2184 7.88723 13.1964C8.24793 12.8718 8.6928 12.5511 9.08957 12.467C9.88311 12.3026 9.81498 13.02 9.71077 13.5851Z" fill="black"/>
<path d="M147.138 38.2129C146.781 37.9324 146.316 38.1127 146.272 38.5696C146.06 40.81 147.006 43.0223 146.789 45.2827C146.697 46.2365 148.272 46.4489 148.469 45.5111C148.961 43.1185 149.33 39.9403 147.138 38.2129Z" fill="black"/>
<path d="M151.863 36.6538C151.563 36.1368 150.917 36.229 150.597 36.6538C149.799 37.7119 149.799 39.5114 149.507 40.7698C149.174 42.1926 151.318 42.7938 151.699 41.375C152.076 39.9683 152.653 38.0085 151.863 36.6538Z" fill="black"/>
</svg>
